<?xml version="1.0" standalone="no"?>
<!DOCTYPE svg PUBLIC "-//W3C//DTD SVG 1.1//EN" "http://www.w3.org/Graphics/SVG/1.1/DTD/svg11.dtd" >
<!--
2018-10-25: Created with FontForge (http://fontforge.org)
-->
<svg xmlns="http://www.w3.org/2000/svg" xmlns:xlink="http://www.w3.org/1999/xlink" version="1.1">
<metadata>
Created by FontForge 20180321 at Thu Oct 25 10:16:17 2018
 By iapuser

</metadata>
<defs>
<font id="fontcustom" horiz-adv-x="512" >
  <font-face 
    font-family="fontcustom"
    font-weight="400"
    font-stretch="normal"
    units-per-em="512"
    panose-1="2 0 5 3 0 0 0 0 0 0"
    ascent="448"
    descent="-64"
    bbox="-64.5312 -64 580.16 448.115"
    underline-thickness="25.6"
    underline-position="-51.2"
    unicode-range="U+0020-F1D6"
  />
    <missing-glyph />
    <glyph glyph-name="space" unicode=" " horiz-adv-x="200" 
 />
    <glyph glyph-name="layout-tablet" unicode="&#xf1ad;" 
d="M0 443.259c0 4.74121 0 4.74121 4.74121 4.74121h502.518c4.74121 0 4.74121 0 4.74121 -4.74121v-391.11c0 -4.74121 0 -4.74121 -4.74121 -4.74121h-502.518c-4.74121 0 -4.74121 0 -4.74121 4.74121v391.11zM28.4443 80.5928h455.111v338.963h-455.111v-338.963z
M30.8145 412.444c0 4.74121 0 4.74121 4.74121 4.74121h440.889c4.74121 0 4.74121 0 4.74121 -4.74121v-47.4072c0 -4.74121 0 -4.74121 -4.74121 -4.74121h-440.889c-4.74121 0 -4.74121 0 -4.74121 4.74121v47.4072zM30.8145 353.186
c0 4.74023 0 4.74023 4.74121 4.74023h218.074c4.74023 0 4.74023 0 4.74023 -4.74023v-194.371c0 -4.74023 0 -4.74023 -4.74023 -4.74023h-218.074c-4.74121 0 -4.74121 0 -4.74121 4.74023v194.371zM260.741 353.186c0 4.74023 0 4.74023 4.74023 4.74023h210.963
c4.74121 0 4.74121 0 4.74121 -4.74023v-109.037c0 -4.74121 0 -4.74121 -4.74121 -4.74121h-210.963c-4.74023 0 -4.74023 0 -4.74023 4.74121v109.037zM260.741 232.296c0 4.74121 0 4.74121 4.74023 4.74121h210.963c4.74121 0 4.74121 0 4.74121 -4.74121v-73.4814
c0 -4.74023 0 -4.74023 -4.74121 -4.74023h-210.963c-4.74023 0 -4.74023 0 -4.74023 4.74023v73.4814zM74.2637 133.926v-1.18457h366.711v1.18457v1.18555h-366.711v-1.18555zM74.2637 117.333v-1.18457h366.711v1.18457v1.18555h-366.711v-1.18555zM74.2637 98.3701
v-1.18457h366.711v1.18457v1.18555h-366.711v-1.18555z" />
    <glyph glyph-name="expand_less" unicode="&#xf1ce;" 
d="M256 448l256 -256l-59.7334 -59.7334l-196.267 196.267l-196.267 -196.267l-59.7334 59.7334z" />
    <glyph glyph-name="ic-tablet-callout" unicode="&#xf19e;" 
d="M62.4834 385.517c83.3125 83.3115 218.388 83.3115 301.699 0c83.3115 -83.3125 83.3115 -218.388 0 -301.699l-138.76 -138.76c-6.7207 -6.7207 -17.502 -6.67676 -24.1787 0l-138.761 138.76c-83.3115 83.3115 -83.3115 218.387 0 301.699z" />
    <glyph glyph-name="hamburguer" unicode="&#xf1d3;" 
d="M-0 106.667v0v56.8887h512v-56.8887h-512zM-0 248.889v0v56.8887h512v-56.8887h-512zM-0 448v0h512v-56.8887h-512v56.8887z" />
    <glyph glyph-name="fullscreen_exit" unicode="&#xf1d2;" 
d="M-0 45.7139v0v73.1436h182.857v-182.857h-73.1436v109.714h-109.714zM109.714 338.286v0v109.714h73.1436v-182.857h-182.857v73.1436h109.714zM329.143 -64v0v182.857h182.857v-73.1436h-109.714v-109.714h-73.1436zM402.286 338.286v0h109.714v-73.1436h-182.857
v182.857h73.1436v-109.714z" />
    <glyph glyph-name="ic-envelope" unicode="&#xf180;" 
d="M68.2666 379.733h375.467v-238.934h-375.467v238.934zM0 379.733v-238.934c0 -41.75 26.5166 -68.2666 68.2666 -68.2666h375.467c41.75 0 68.2666 26.5166 68.2666 68.2666v238.934c0 41.75 -26.5166 68.2666 -68.2666 68.2666h-375.467
c-41.75 0 -68.2666 -26.5166 -68.2666 -68.2666zM132.798 379.345l242.775 0.273438l-124.104 -93.375zM13.0645 386.512l216.9 -170.167l20.6338 -16.1875l20.9561 15.7676l226.834 170.666l81.7715 61.5244l-102.332 -0.115234l-443.733 -0.5l-98.626 -0.111328z" />
    <glyph glyph-name="legend-example" unicode="&#xf1ae;" 
d="M0 354.909c0 51.4131 41.6777 93.0908 93.0908 93.0908s93.0908 -41.6777 93.0908 -93.0908s-41.6777 -93.0908 -93.0908 -93.0908s-93.0908 41.6777 -93.0908 93.0908zM325.818 354.909c0 51.4131 41.6777 93.0908 93.0908 93.0908s93.0908 -41.6777 93.0908 -93.0908
s-41.6777 -93.0908 -93.0908 -93.0908s-93.0908 41.6777 -93.0908 93.0908z" />
    <glyph glyph-name="ic-restaurants" unicode="&#xf198;" 
d="M0 192.188v2.0498c-0.0117188 47.4678 -0.0488281 158.629 45.6396 204.829c48.4082 48.9561 117.801 48.9434 205.7 48.9316h8.94238c87.875 0.0244141 157.291 0.0244141 205.688 -48.9316c45.1641 -45.6875 45.6641 -154.885 45.6514 -203.219l0.378906 -0.37793
v-5.70996c0.0117188 -47.4678 0.0488281 -158.629 -45.6396 -204.816c-47.6035 -48.1514 -115.52 -48.9443 -201.32 -48.9443h-4.4043h-8.90527c-87.8877 0.0488281 -157.292 -0.0244141 -205.725 48.9443c-45.6885 46.1875 -45.957 157.482 -45.9443 204.951v3.80566z
M256 230.4h-21.333v89.5996h-21.334v-89.5996h-21.333v89.5996h-21.333v-89.5996c0 -27.1367 17.7061 -49.1523 40 -50.8164v-115.584h26.666v115.584c22.2939 1.66406 40 23.6797 40 50.8164v89.5996h-21.333v-89.5996zM309.333 268.8v-102.399h26.667v-102.4h26.667v256
c-29.4404 0 -53.334 -28.6719 -53.334 -51.2002z" />
    <glyph glyph-name="2-col-bg" unicode="&#xf161;" 
d="M0 114.951v333.049h211.262v-333.049h-211.262zM300.738 114.951v333.049h211.262v-333.049h-211.262z" />
    <glyph glyph-name="ic-typography" unicode="&#xf1a1;" 
d="M2.04785 102.054l108.102 340.743h50.8125l117.566 -340.743h-46.3291l-29.8896 90.666h-129.024l-27.8975 -90.666h-43.3398zM84.2451 227.591h106.606l-54.7979 168.379h-0.498047zM392.607 95.0801c-26.4033 0 -48.8203 7.9707 -63.7646 23.4131
c-11.9561 12.4541 -19.4287 29.8896 -19.4287 52.8057c0 22.915 7.9707 40.8486 20.9229 52.8047c18.4316 16.9375 47.3252 23.4141 82.6953 23.4141h50.8125v15.4424c0 19.9268 -3.4873 32.3809 -12.4541 41.3477c-10.4619 9.96387 -26.4033 14.4473 -50.8125 14.4473
c-18.4326 0 -41.8457 -1.99316 -65.7578 -5.97852l-1.49414 31.8828c22.915 5.47949 50.8125 8.46875 74.2256 8.46875c36.3662 0 60.7764 -7.9707 76.2188 -22.417c15.4434 -14.9453 21.4209 -34.374 21.4209 -66.2559v-162.401h-33.377l-2.49023 16.4395
c-21.4209 -13.9482 -47.3252 -23.4131 -76.7168 -23.4131zM401.574 128.457c19.9268 0 44.3359 6.97363 62.2705 15.9404v72.7324h-44.835c-25.4062 0 -42.8418 -3.4873 -54.2998 -12.4541c-8.46875 -6.97461 -13.4502 -17.4355 -13.4502 -32.3809
c0 -29.3916 18.4316 -43.8379 50.3145 -43.8379z" />
    <glyph glyph-name="sort-up" unicode="&#xf1b5;" 
d="M512 106.667l-256 341.333l-256 -341.333h512z" />
    <glyph glyph-name="ic-fuel" unicode="&#xf181;" 
d="M492.61 363.386c12.1182 -11.8574 19.3896 -28.5645 19.3896 -45.2725v-260.312c0 -32.3369 -30.9014 -57.667 -66.6514 -55.5117c-32.7188 1.61719 -57.5615 27.4863 -57.5615 57.1289v91.082c0 2.15625 0 3.77246 -0.606445 5.92871
c-1.21191 5.92773 -4.84668 11.8564 -10.2998 15.6289c-4.24219 3.23438 -9.08887 3.77344 -14.542 3.77344h-4.84766l1.21191 -191.327h44.8379v-48.5049h-98.7646h-210.859h-93.917v48.5049h45.4434v374.568c0 38.8047 35.75 70.0635 78.7695 70.0635h149.056
c43.626 0 83.6162 -27.4863 83.6162 -65.751l0.606445 -158.99l7.27051 -0.539062c30.9023 0 54.5332 -25.8691 54.5332 -53.3555v-93.2383c0 -16.168 14.542 -28.0244 32.1133 -26.4082c15.7539 1.07812 26.6602 14.0127 26.6602 27.4863v209.111
c-11.5117 -7.00586 -26.0537 -9.7002 -41.2021 -8.08398c-27.2666 3.77246 -49.6855 24.2529 -52.7148 48.5059c-4.24121 31.7979 23.0254 59.8232 58.168 61.4395l-58.168 59.2842l24.8428 19.4023zM447.167 287.933c15.1475 0 29.6895 11.8564 29.6895 26.4082
s-13.3301 26.4082 -29.6895 26.4082c-16.3604 0 -29.6904 -11.8564 -29.6904 -26.4082s13.3301 -26.4082 29.6904 -26.4082zM99.9766 346.139v-87.3096h202.376v87.3096c0 12.9346 -11.5127 23.1748 -26.0547 23.1748h-150.267
c-14.543 0 -26.0547 -10.2402 -26.0547 -23.1748z" />
    <glyph glyph-name="chevron_right" unicode="&#xf1cc;" 
d="M25.5986 388.267l59.7334 59.7334l256 -256l-256 -256l-59.7334 59.7334l196.267 196.267z" />
    <glyph glyph-name="arrow_forward" unicode="&#xf1c9;" 
d="M256 448l256 -256l-256 -256l-44.7998 44.7998l179.2 179.2h-390.4v64h390.4l-179.2 179.2z" />
    <glyph glyph-name="close" unicode="&#xf1cd;" 
d="M512 396.8l-204.8 -204.8l204.8 -204.8l-51.2002 -51.2002l-204.8 204.8l-204.8 -204.8l-51.2002 51.2002l204.8 204.8l-204.8 204.8l51.2002 51.2002l204.8 -204.8l204.8 204.8z" />
    <glyph glyph-name="ic-fullscreen" unicode="&#xf182;" 
d="M85.333 140.8h-68.2666v-170.666h170.667v68.2666h-102.4v102.399v0zM17.0664 277.333h68.2666v102.4h102.4v68.2666h-170.667v-170.667v0zM426.667 38.4004h-102.4v-68.2666h170.667v170.666h-68.2666v-102.399v0zM324.267 448v-68.2666h102.4v-102.4h68.2666v170.667
h-170.667v0z" />
    <glyph glyph-name="check" unicode="&#xf1ca;" 
d="M170.666 129.422l301.512 301.512l39.8223 -39.8223l-341.334 -341.334l-159.288 159.289l39.8223 39.8223z" />
    <glyph glyph-name="ic-desplegar" unicode="&#xf17b;" 
d="M427.842 336.753c66.3926 -66.3926 66.3926 -174.037 0 -240.431v0c-66.3936 -66.3926 -174.038 -66.3926 -240.431 0l-120.216 120.216l120.216 120.215c66.3926 66.3936 174.037 66.3936 240.431 0v0zM427.842 336.753c66.3926 -66.3926 66.3926 -174.037 0 -240.431v0
c-66.3936 -66.3926 -174.038 -66.3926 -240.431 0l-120.216 120.216l120.216 120.215c66.3926 66.3936 174.037 66.3936 240.431 0v0z" />
    <glyph glyph-name="ic-graphics-vizrules-xs" unicode="&#xf184;" 
d="M220.689 395.034l185.38 -101.517v-203.035l-185.38 -101.517l-185.379 101.517v203.035z" />
    <glyph glyph-name="fullscreen" unicode="&#xf1d1;" 
d="M73.1426 118.857v0v-109.715h109.715v-73.1426h-182.857v182.857h73.1426zM-0 265.143v0v182.857h182.857v-73.1426h-109.715v-109.715h-73.1426zM438.857 9.14258v0v109.715h73.1426v-182.857h-182.857v73.1426h109.715zM329.143 448v0h182.857v-182.857h-73.1426
v109.715h-109.715v73.1426z" />
    <glyph glyph-name="ic-question" unicode="&#xf194;" 
d="M97.6211 81.6338c-1.36523 7.50879 -2.04785 15.0186 -2.04785 21.1621c0 35.499 8.875 59.3926 45.0557 101.718l8.19238 9.55664c32.7676 38.2295 50.5176 65.5361 50.5176 103.766c0 21.8457 -6.82715 38.2295 -19.1152 48.4697
c-13.6533 11.6055 -33.4502 17.0664 -64.8525 17.0664c-27.3066 0 -58.0273 -4.0957 -81.9209 -10.2402l-8.87402 44.373c33.4502 10.2402 66.9014 15.0195 98.9863 15.0195c49.835 0 83.9678 -11.6055 106.496 -32.7686
c19.1143 -18.4316 29.3545 -43.6904 29.3545 -74.4102c0 -49.1523 -20.4795 -82.6035 -59.3916 -126.977c-45.0557 -51.8828 -58.71 -67.584 -60.7578 -116.735h-41.6426zM119.467 -52.8516c-21.8457 0 -34.1338 9.55664 -34.1338 33.4502v5.46094
c0 23.8936 12.2881 33.4512 34.1338 33.4512h3.41309c21.8457 0 34.1338 -9.55762 34.1338 -33.4512v-5.46094c0 -23.8936 -12.2881 -33.4502 -34.1338 -33.4502h-3.41309z" />
    <glyph glyph-name="layout-desktop" unicode="&#xf1a9;" 
d="M183.255 86.3115h145.375c1.44727 0 2.70703 -0.992188 3.04492 -2.40039l17.2852 -72.0244c0.404297 -1.68164 -0.631836 -3.37207 -2.31348 -3.77539c-0.239258 -0.0576172 -0.485352 -0.0869141 -0.731445 -0.0869141h-179.945
c-1.72949 0 -3.13184 1.40234 -3.13184 3.13184c0 0.246094 0.0292969 0.491211 0.0869141 0.730469l17.2852 72.0244c0.337891 1.4082 1.59766 2.40039 3.04492 2.40039zM0 444.868c0 3.13184 0 3.13184 3.13184 3.13184h505.736c3.13184 0 3.13184 0 3.13184 -3.13184
v-336.636c0 -3.13184 0 -3.13184 -3.13184 -3.13184h-505.736c-3.13184 0 -3.13184 0 -3.13184 3.13184v336.636zM18.7891 144.245h475.987v284.966h-475.987v-284.966zM25.0518 419.816c0 3.13184 0 3.13184 3.13184 3.13184h457.198c3.13184 0 3.13184 0 3.13184 -3.13184
v-51.6699c0 -3.13086 0 -3.13086 -3.13184 -3.13086h-457.198c-3.13184 0 -3.13184 0 -3.13184 3.13086v51.6699zM25.0518 358.752c0 3.13184 0 3.13184 3.13184 3.13184h228.6c3.13086 0 3.13086 0 3.13086 -3.13184v-176.93c0 -3.13086 0 -3.13086 -3.13086 -3.13086
h-228.6c-3.13184 0 -3.13184 0 -3.13184 3.13086v176.93zM261.48 358.752c0 3.13184 0 3.13184 3.13086 3.13184h220.771c3.13184 0 3.13184 0 3.13184 -3.13184v-100.208c0 -3.13086 0 -3.13086 -3.13184 -3.13086h-220.771c-3.13086 0 -3.13086 0 -3.13086 3.13086
v100.208zM261.48 252.281c0 3.13184 0 3.13184 3.13086 3.13184h220.771c3.13184 0 3.13184 0 3.13184 -3.13184v-68.8926c0 -3.13184 0 -3.13184 -3.13184 -3.13184h-220.771c-3.13086 0 -3.13086 0 -3.13086 3.13184v68.8926zM29.4033 168.514v-0.783203h141.943v0.783203
v0.783203h-141.943v-0.783203zM184.413 168.514v-0.783203h141.944v0.783203v0.783203h-141.944v-0.783203zM342.554 168.514v-0.783203h141.944v0.783203v0.783203h-141.944v-0.783203zM29.4033 160.685v-0.782227h141.943v0.782227v0.783203h-141.943v-0.783203z
M184.413 160.685v-0.782227h141.944v0.782227v0.783203h-141.944v-0.783203zM342.554 160.685v-0.782227h141.944v0.782227v0.783203h-141.944v-0.783203zM29.4033 152.856v-0.783203h141.943v0.783203v0.782227h-141.943v-0.782227zM184.413 152.856v-0.783203h141.944
v0.783203v0.782227h-141.944v-0.782227zM342.554 152.856v-0.783203h141.944v0.783203v0.782227h-141.944v-0.782227z" />
    <glyph glyph-name="ic-sketch" unicode="&#xf19c;" 
d="M257.54 417.98l123.819 -15.1133l90.9551 -118.816l-214.824 -256.888l-217.463 256.914l91.5244 118.774zM255.904 445.658l-133.419 -16.0205l-5.7666 -0.692383l-3.54492 -4.60059l-101.892 -132.229l-6.82324 -8.85449l7.22168 -8.53223l235.312 -278
l10.626 -12.5537l10.5508 12.6172l232.48 278l7.10352 8.49512l-6.73145 8.79297l-101.223 132.229l-3.53613 4.62012l-5.77539 0.705078l-131.257 16.0205l-1.66309 0.202148zM256.527 412.09l120.182 -133.246l-121.233 -239.314l-119.177 239.264zM256.527 432.75
l-10.2764 9.26855l-136.817 -151.689l-6.31348 -7l4.20312 -8.4375l135.662 -272.358l12.2822 -24.6572l12.4482 24.5732l137.973 272.358l4.29102 8.4707l-6.35938 7.05078l-136.817 151.689zM123.602 414.622l-13.8232 0.647461l-5.61914 -119.833l-80.5713 1.57422
l-0.270508 -13.835l-0.270508 -13.835l94.0342 -1.83789l13.4619 -0.263672l0.630859 13.4502l6.25 133.284zM387.385 413.926l-13.8066 -0.929688l8.88574 -131.993l0.884766 -13.1445l13.1719 0.238281l92.3711 1.66895l-0.25 13.8359l-0.25 13.835l-79.1992 -1.43066
l-8.00098 118.85zM119.405 279.946v-13.8379h272.717v13.8379v13.8379h-272.717v-13.8379z" />
    <glyph glyph-name="tablet" unicode="&#xf1b7;" 
d="M13.4883 407.536c0 26.9756 0 26.9756 26.9756 26.9756h284.324c26.9756 0 26.9756 0 26.9756 -26.9756v-431.072c0 -26.9756 0 -26.9756 -26.9756 -26.9756h-284.324c-26.9756 0 -26.9756 0 -26.9756 26.9756v431.072zM61.6396 369.905
c0 13.4873 0 13.4873 13.4883 13.4873h213.108c13.4873 0 13.4873 0 13.4873 -13.4873v-334.5c0 -13.4873 0 -13.4873 -13.4873 -13.4873h-213.108c-13.4883 0 -13.4883 0 -13.4883 13.4873v334.5zM169.272 -13.2852c0 7.15039 5.79785 12.9482 12.9492 12.9482
c7.15039 0 12.9482 -5.79785 12.9482 -12.9482c0 -7.15137 -5.79785 -12.9492 -12.9482 -12.9492c-7.15137 0 -12.9492 5.79785 -12.9492 12.9492z" />
    <glyph glyph-name="ic-single-arrow" unicode="&#xf19b;" 
d="M341.332 388.267l-196.267 -196.267l196.267 -196.267l-59.7334 -59.7334l-256 256l256 256z" />
    <glyph glyph-name="menu" unicode="&#xf1d4;" 
d="M0 320v0v128h128v-128h-128zM192 -64v0v128h128v-128h-128zM0 -64v0v128h128v-128h-128zM0 128v0v128h128v-128h-128zM192 128v0v128h128v-128h-128zM384 448v0h128v-128h-128v128zM192 320v0v128h128v-128h-128zM384 128v0v128h128v-128h-128zM384 -64v0v128h128v-128
h-128z" />
    <glyph glyph-name="chevron_left" unicode="&#xf1cb;" 
d="M315.733 388.267l-196.267 -196.267l196.267 -196.267l-59.7334 -59.7334l-256 256l256 256z" />
    <glyph glyph-name="ic-ai_02" unicode="&#xf165;" 
 />
    <glyph glyph-name="ic-circle-arrow" unicode="&#xf171;" 
d="M0 192c0 132.549 107.451 240 240 240s240 -107.451 240 -240s-107.451 -240 -240 -240s-240 107.451 -240 240zM160 158.416l81.584 81.584l78.416 -81.584z" />
    <glyph glyph-name="ic-close" unicode="&#xf172;" 
d="M512 396.8l-204.8 -204.8l204.8 -204.8l-51.2002 -51.2002l-204.8 204.8l-204.8 -204.8l-51.2002 51.2002l204.8 204.8l-204.8 204.8l51.2002 51.2002l204.8 -204.8l204.8 204.8z" />
    <glyph glyph-name="arrow_back" unicode="&#xf1c6;" 
d="M512 224v-64h-390.4l179.2 -179.2l-44.7998 -44.7998l-256 256l256 256l44.7998 -44.7998l-179.2 -179.2h390.4z" />
    <glyph glyph-name="add" unicode="&#xf1c5;" 
d="M219.429 448h73.1426v-219.429h219.429v-73.1426h-219.429v-219.429h-73.1426v219.429h-219.429v73.1426h219.429v219.429z" />
    <glyph glyph-name="ic-hand" unicode="&#xf18a;" 
d="M414.692 110.043c-0.120117 -0.704102 -0.198242 -1.41406 -0.246094 -2.14844c-4.25488 -75.335 -65.1162 -134.345 -138.545 -134.345c-37.5361 0 -72.7021 15.1836 -99.0215 42.7461c-0.0361328 0.0371094 -0.0722656 0.0800781 -0.114258 0.117188l-127.723 131.394
c-3.6377 3.74121 -5.64258 8.71777 -5.64258 14.0098c0 5.29102 2.00488 10.2676 5.64258 14.0098c3.75684 3.86523 8.68457 5.79102 13.6182 5.79102s9.86719 -1.93262 13.6191 -5.79102l49.3125 -50.7236c5.00586 -5.15527 12.5381 -6.69336 19.0801 -3.9082
c6.55469 2.79102 10.8154 9.36035 10.8154 16.6465v252.789c0 10.9287 8.64355 19.8135 19.2607 19.8135c10.624 0 19.2607 -8.89062 19.2607 -19.8135v-94.5869v-75.668c0 -9.95312 7.84473 -18.0176 17.5137 -18.0176c9.66992 0 17.5146 8.07031 17.5146 18.0176v75.668
c0 10.9287 8.64844 19.8135 19.2598 19.8135c10.624 0 19.2607 -8.89062 19.2607 -19.8135v-37.8369v-37.8379c0 -9.95312 7.84473 -18.0166 17.5137 -18.0166c9.67578 0 17.5146 8.07031 17.5146 18.0166v37.8379c0 10.9287 8.64844 19.8135 19.2598 19.8135
c10.6299 0 19.2607 -8.89062 19.2607 -19.8135v-37.8379v-18.918c0 -9.95312 7.84473 -18.0176 17.5137 -18.0176c9.68164 0 17.5146 8.07031 17.5146 18.0176v18.918c0 10.9229 8.64844 19.8145 19.2598 19.8145c10.624 0 19.2607 -8.8916 19.2607 -19.8145v-110.325
h0.0361328zM395.432 276.229c-7.40625 0 -14.4766 -1.53125 -20.9111 -4.31055c-5.95996 24.1924 -27.2969 42.1475 -52.6494 42.1475c-7.40625 0 -14.4766 -1.53125 -20.9111 -4.30957c-5.9541 24.1914 -27.3037 42.1465 -52.6436 42.1465
c-6.78223 0 -13.2764 -1.28418 -19.2607 -3.63086v42.3574c0 30.7979 -24.3564 55.8545 -54.2939 55.8545c-29.9385 0 -54.2949 -25.0566 -54.2949 -55.8545v-209.29l-19.4043 19.9619c-21.1689 21.7773 -55.6152 21.7773 -76.7842 0
c-10.2578 -10.5518 -15.8994 -24.5742 -15.8994 -39.4922c0 -14.917 5.64746 -28.9453 15.8994 -39.4912l127.663 -131.331c32.9512 -34.4844 76.9697 -53.4717 123.96 -53.4717c90.8887 0 166.395 72.1924 173.303 164.97
c0.348633 1.4082 0.522461 2.87109 0.522461 4.38379v113.506c0 30.7979 -24.3564 55.8545 -54.2949 55.8545z" />
    <glyph glyph-name="ic-arrow-up" unicode="&#xf167;" 
d="M256 448l256 -256l-59.7334 -59.7334l-196.267 196.267l-196.267 -196.267l-59.7334 59.7334z" />
    <glyph glyph-name="ic-more" unicode="&#xf190;" 
d="M221.866 430.934v-204.8h-204.8v-68.2676h204.8v-204.8h68.2676v204.8h204.8v68.2676h-204.8v204.8h-68.2676z" />
    <glyph glyph-name="8-col-bg" unicode="&#xf164;" 
d="M0 383.106v64.8936h46.7451v-64.8936h-46.7451zM265.624 383.106v64.8936h46.7451v-64.8936h-46.7451zM132.537 383.106v64.8936h46.7451v-64.8936h-46.7451zM398.711 383.106v64.8936h46.7451v-64.8936h-46.7451zM66.5439 383.106v64.8936h46.7451v-64.8936h-46.7451z
M332.168 383.106v64.8936h46.7451v-64.8936h-46.7451zM199.08 383.106v64.8936h46.7461v-64.8936h-46.7461zM465.255 383.106v64.8936h46.7451v-64.8936h-46.7451z" />
    <glyph glyph-name="ic-arrow" unicode="&#xf166;" 
d="M40.5225 407.478h422.379v-422.379h-73.917v295.665l-322.063 -322.063l-52.7969 52.7979l322.063 322.063h-295.665v73.916z" />
    <glyph glyph-name="triangle" unicode="&#xf1b9;" 
d="M152.818 79.0645v216.656h215.579v-216.656h-215.579zM152.818 79.0645h215.579v216.656h-215.579v-216.656z" />
    <glyph glyph-name="more" unicode="&#xf1d5;" 
d="M64 320v0c-35.2002 0 -64 28.7998 -64 64s28.7998 64 64 64s64 -28.7998 64 -64s-28.7998 -64 -64 -64zM64 256v0c35.2002 0 64 -28.7998 64 -64s-28.7998 -64 -64 -64s-64 28.7998 -64 64s28.7998 64 64 64zM64 64v0c35.2002 0 64 -28.7998 64 -64s-28.7998 -64 -64 -64
s-64 28.7998 -64 64s28.7998 64 64 64z" />
    <glyph glyph-name="ic-traffic" unicode="&#xf1a0;" 
d="M307.732 318.771c-3.27539 -0.0126953 -6.48438 0.841797 -9.23633 2.45703c-40.7139 26.8516 -95.8057 26.8516 -136.52 0c-7.7998 -4.82031 -18.4072 -3.0918 -23.8799 3.8916c-4.36816 7.0166 -2.11914 15.9033 5.18164 20.4795
c52.0107 33.5635 121.68 33.5635 173.69 0c6.29102 -3.82129 9.13184 -10.9092 7.01855 -17.5137c-2.1123 -6.60547 -8.69043 -11.2031 -16.2549 -11.3623v2.04785zM342.2 381.44c-3.16504 0.0449219 -6.26562 0.820312 -9.01074 2.25195
c-80.876 43.8271 -125.256 43.8271 -206.132 0c-8.14941 -4.46777 -18.7393 -2.08301 -23.6543 5.3252c-4.91406 7.4082 -2.29199 17.0361 5.85742 21.5039c91.4639 49.9717 150.262 49.9717 241.726 0c7.54199 -4.38477 10.0947 -13.3105 5.85742 -20.4795
c-2.75195 -5.1123 -8.38672 -8.42188 -14.6436 -8.60156zM458.896 178.073c3.18457 -7.20312 2.78125 -15.3076 -1.10742 -22.2197c-3.8877 -6.91309 -10.8789 -11.9551 -19.168 -13.8252c-3.83008 -1.02344 -7.65918 -3.68555 -10.5879 -3.68555
c6.50098 -14.4404 11.2598 -29.4785 14.1924 -44.8516v-111.002c1.2998 -7.08301 -1.19336 -14.3057 -6.71191 -19.4443c-5.51953 -5.13867 -13.4023 -7.57715 -21.2227 -6.56445c-17.7969 0 -40.7754 -4.50586 -43.4795 20.4795
c-2.02734 18.4316 -13.0654 20.4805 -29.0605 20.4805h-223.929c-15.9951 0 -27.2588 -2.25293 -29.2861 -20.4805c-2.70312 -25.3955 -25.457 -20.4795 -43.4795 -20.4795c-7.46387 -0.226562 -14.6416 2.61914 -19.5371 7.74609
c-4.89648 5.12598 -6.98828 11.9863 -5.69434 18.6729c0 37.0684 -1.80176 74.1377 0 111.001c2.53613 15.1865 6.84082 30.084 12.8418 44.4424c-3.1543 1.02344 -6.98438 2.66211 -10.8135 3.68555c-19.374 5.93945 -22.9785 20.2754 -19.374 36.0449
c0.889648 6.82617 5.48828 12.791 12.2422 15.8818c6.75391 3.08984 14.7627 2.89453 21.3242 -0.521484c23.2041 -7.9873 31.0889 1.63867 36.9453 19.251c11.251 47.0254 60.1133 78.4746 112.641 72.499h45.0557h45.0566
c52.5264 5.97559 101.389 -25.4736 112.64 -72.499c5.85742 -17.6123 14.418 -27.2383 36.9463 -19.251c6.56055 3.41602 14.5703 3.61133 21.3242 0.521484c6.75391 -3.09082 11.3516 -9.05566 12.2422 -15.8818zM123.679 65.8428
c14.6436 2.25293 44.6055 13.5176 28.6104 29.082c-14.4668 12.6855 -33.9795 19.4854 -54.0674 18.8418c-5.34766 0.354492 -10.7051 -0.5625 -15.5439 -2.66309c-10.4912 -7.18848 -13.4805 -20.3398 -6.9834 -30.7197c10.7178 -12.2881 28.2139 -17.9346 45.0557 -14.541
h2.92871zM382.976 79.3604c6.19141 10.417 2.91211 23.3936 -7.65918 30.3096c-4.8252 2.1377 -10.1943 3.05762 -15.5439 2.66309c-20.0742 0.573242 -39.5586 -6.2168 -54.0674 -18.8418c-15.7695 -15.7695 14.8682 -26.4189 29.2861 -28.6719h2.92871
c16.8428 -3.39453 34.3379 2.25195 45.0557 14.541z" />
    <glyph glyph-name="arrow_drop_down" unicode="&#xf1c7;" 
d="M0 448h512l-256 -256z" />
    <glyph glyph-name="ic-back-arrow" unicode="&#xf168;" 
d="M349.866 388.267l-196.267 -196.267l196.267 -196.267l-59.7324 -59.7334l-256 256l256 256z" />
    <glyph glyph-name="ic-pois" unicode="&#xf193;" 
d="M192 448c106.121 0 192 -79.8594 192 -178.498c0 -32.8711 -10.0791 -61.0537 -25.2393 -84.5479c-5.05273 -9.40234 -10.1348 -14.0908 -15.1602 -23.4932l-151.601 -225.461l-151.573 225.461c-5.05273 9.40234 -10.1064 14.0908 -15.1602 23.4932
c-15.1602 23.4941 -25.2666 51.6768 -25.2666 84.5479c0 98.6387 85.8789 178.498 192 178.498zM102.4 273.454c0 -44.9717 40.1094 -81.4541 89.6133 -81.4541c49.4766 0 89.5859 36.4824 89.5859 81.4541c0 44.9727 -40.1094 81.4551 -89.5859 81.4551
c-49.5039 0 -89.6133 -36.4824 -89.6133 -81.4551z" />
    <glyph glyph-name="logo-luca" unicode="&#xf1af;" 
d="M479.259 389.347v21.7881c0 2.63184 -1.5918 4.45312 -4.36133 4.45312h-35.1895c-2.77051 0 -4.36035 -1.82129 -4.36035 -4.45312v-21.7881c0 -2.63184 1.58984 -4.4541 4.36035 -4.4541h35.1895c2.76953 0 4.36133 1.82227 4.36133 4.4541zM434.319 447.881h45.9668
c3.4668 0 6.60645 -1.43457 8.87988 -3.75586c2.78906 -2.84961 16.2305 -16.6016 19.1562 -19.5889c2.27148 -2.32129 3.67773 -5.52734 3.67773 -9.07031v-96.9688c0 -1.99316 -1.58203 -3.6084 -3.53125 -3.6084h-25.6787c-1.95117 0 -3.53125 1.61523 -3.53125 3.6084
v38.1465c0 2.63086 -1.5918 4.45312 -4.36133 4.45312h-35.1895c-2.77051 0 -4.36035 -1.82227 -4.36035 -4.45312v-38.1465c0 -1.99316 -1.58105 -3.6084 -3.53223 -3.6084h-25.6768c-1.95117 0 -3.53223 1.61523 -3.53223 3.6084v96.9688
c0 3.54297 1.40527 6.74902 3.67773 9.07031c2.92676 2.9873 16.3662 16.7393 19.1562 19.5889c2.27148 2.32129 5.41113 3.75586 8.87891 3.75586zM265.584 347.281v68.3271c0 3.54102 1.40527 6.74707 3.67773 9.06836c2.79004 2.84961 16.252 16.5791 19.1787 19.5664
c2.27246 2.32129 5.41113 3.75684 8.87793 3.75684h64.1865c1.94922 0 3.53223 -1.61523 3.53223 -3.60742v-25.2051c0 -1.99316 -1.58301 -3.6084 -3.53223 -3.6084h-58.8848c-2.57617 0 -4.35938 -1.625 -4.35938 -4.45215v-59.4912
c0 -2.82812 1.7832 -4.4541 4.35938 -4.4541h58.8848c1.94922 0 3.53223 -1.61523 3.53223 -3.60645v-25.0781c0 -1.99316 -1.58301 -3.6084 -3.53223 -3.6084h-64.1865c-3.4668 0 -6.60547 1.43652 -8.87793 3.75781c-2.92676 2.9873 -16.3887 16.7168 -19.1787 19.5664
c-2.27246 2.32129 -3.67773 5.52734 -3.67773 9.06836zM198.324 314.889h-45.9658c-3.46777 0 -6.60645 1.43652 -8.87891 3.75781c-2.79004 2.84961 -16.2305 16.6006 -19.1572 19.5889c-2.27246 2.32129 -3.67773 5.52734 -3.67773 9.06934v96.9697
c0 1.99121 1.58203 3.60645 3.53125 3.60645h25.6797c1.94922 0 3.53125 -1.61523 3.53125 -3.60645v-92.6387c0 -2.63281 1.59082 -4.4541 4.36035 -4.4541h35.1895c2.76953 0 4.35938 1.82129 4.35938 4.4541v92.6387c0 1.99121 1.58301 3.60645 3.53223 3.60645h25.6787
c1.9502 0 3.53223 -1.61523 3.53223 -3.60645v-96.9697c0 -3.54199 -1.40527 -6.74805 -3.67871 -9.06934c-2.92578 -2.98828 -16.3662 -16.7393 -19.1562 -19.5889c-2.27246 -2.32129 -5.41113 -3.75781 -8.87988 -3.75781zM31.7129 314.889
c-3.4668 0 -6.60547 1.43652 -8.87891 3.75781c-2.78906 2.84961 -16.2295 16.6006 -19.1562 19.5889c-2.27246 2.32129 -3.67773 5.52734 -3.67773 9.06934v96.9697c0 1.99121 1.58203 3.60645 3.5332 3.60645h25.6768c1.95117 0 3.53125 -1.61523 3.53125 -3.60645
v-92.6387c0 -2.63281 1.5918 -4.4541 4.36133 -4.4541h46.6113c1.95117 0 3.53223 -1.61523 3.53223 -3.60645v-25.0869c0 -1.99121 -1.58105 -3.6084 -3.53223 -3.6084c-8.20703 0 -46.1592 0.00878906 -52.001 0.00878906z" />
    <glyph glyph-name="4-col-bg" unicode="&#xf162;" 
d="M0 313.143v134.857h97.1426v-134.857h-97.1426zM276.571 313.143v134.857h97.1426v-134.857h-97.1426zM138.286 313.143v134.857h97.1426v-134.857h-97.1426zM414.857 313.143v134.857h97.1426v-134.857h-97.1426z" />
    <glyph glyph-name="ic-pdf" unicode="&#xf192;" 
d="M416.914 246.045v0.274414c12.3262 0 24.1436 -5.81055 32.8379 -16.1445s13.5469 -24.3398 13.4854 -38.9189v-109.577c0 -30.2588 -20.7393 -54.7881 -46.3232 -54.7881h-370.59c-25.584 0 -46.3242 24.5293 -46.3242 54.7881v109.577
c0 30.2598 20.7402 54.7891 46.3242 54.7891h370.59zM399.473 242.303v136.725c0.0498047 8.9082 -3.38574 17.4697 -9.54688 23.7871c-6.16016 6.31641 -14.5371 9.86914 -23.2734 9.86816h-221.117v-43.5986c-0.102539 -28.999 -23.1328 -52.4814 -51.5752 -52.5859
h-41.4473v-300.604c0 -18.4814 14.6943 -33.4639 32.8203 -33.4639h281.319c18.126 0 32.8203 14.9824 32.8203 33.4639v58.1318h28.1318v-58.1318c-0.103516 -34.2793 -27.332 -62.042 -60.9521 -62.1475h-281.319c-33.6201 0.105469 -60.8486 27.8682 -60.9521 62.1475
v312.268c0.0234375 3.79883 1.50488 7.43652 4.12598 10.1348l96.9609 98.8623c2.63574 2.69043 6.21094 4.2041 9.94043 4.20703h231.244c33.6201 -0.104492 60.8486 -27.8682 60.9521 -62.1475v-136.725zM63.1953 209.064v-133.412h30.4277v46.0312h21.4551
c8.8418 0 16.3193 1.04004 22.4307 3.12012c6.11133 2.08105 11.1172 5.33203 15.0186 9.75293c6.63184 7.41211 9.94727 18.2041 9.94727 32.3779s-3.57617 24.5762 -10.7275 31.208c-4.16113 3.90039 -9.65527 6.69629 -16.4814 8.38672
c-6.82715 1.69043 -15.5713 2.53516 -26.2344 2.53516h-45.8359zM108.642 144.504h-15.0186v42.5205h14.2383c4.68164 0 8.5166 -0.357422 11.5078 -1.07324c2.99121 -0.714844 5.39648 -1.91797 7.2168 -3.6084c3.38086 -3.25 5.07129 -8.5166 5.07129 -15.7988
c0 -7.80176 -1.75586 -13.458 -5.2666 -16.9688c-1.9502 -1.9502 -4.19336 -3.2832 -6.72852 -3.99805c-2.53613 -0.71582 -6.20898 -1.07324 -11.0205 -1.07324zM183.93 209.064v-133.412h45.251c11.833 0 21.748 1.23535 29.7451 3.70605s14.4658 6.24121 19.4072 11.3125
c5.46094 5.72168 9.52441 12.8408 12.1904 21.3574c2.66602 8.51758 3.99805 18.8223 3.99805 30.915c0 23.5361 -5.39551 40.5703 -16.1885 51.1025c-5.46094 5.46191 -12.4502 9.33008 -20.9678 11.6055c-8.5166 2.27539 -19.2773 3.41309 -32.2803 3.41309h-41.1553z
M227.23 97.8877h-12.873v88.9414h9.3623c7.54199 0 13.6533 -0.682617 18.334 -2.04785c4.68164 -1.36523 8.51758 -3.6084 11.5078 -6.72949c3.38086 -3.64062 5.78711 -8.06152 7.2168 -13.2627c1.43066 -5.20117 2.14551 -12.4834 2.14551 -21.8457
c0 -8.32227 -0.519531 -14.9531 -1.55957 -19.8945c-1.04102 -4.94141 -2.86133 -9.3623 -5.46191 -13.2637c-5.33105 -7.93164 -14.8887 -11.8975 -28.6719 -11.8975zM317.732 209.064v-133.412h30.4277v56.1738h43.6904v22.8203h-43.6904v32.3779h55.1982l2.34082 22.04
h-87.9668z" />
    <glyph glyph-name="layout-mobile" unicode="&#xf1ac;" 
d="M0 441.94c0 6.05957 0 6.05957 6.05957 6.05957h278.722c6.05859 0 6.05859 0 6.05859 -6.05957v-499.881c0 -6.05957 0 -6.05957 -6.05859 -6.05957h-278.722c-6.05957 0 -6.05957 0 -6.05957 6.05957v499.881zM27.2666 -21.5859h236.308v433.23h-236.308v-433.23z
M30.2959 402.557c0 6.05859 0 6.05859 6.05957 6.05859h218.13c6.05859 0 6.05859 0 6.05859 -6.05859v-60.5918c0 -6.05957 0 -6.05957 -6.05859 -6.05957h-218.13c-6.05957 0 -6.05957 0 -6.05957 6.05957v60.5918zM30.2959 326.816c0 6.05957 0 6.05957 6.05957 6.05957
h218.13c6.05859 0 6.05859 0 6.05859 -6.05957v-96.9463c0 -6.05957 0 -6.05957 -6.05859 -6.05957h-218.13c-6.05957 0 -6.05957 0 -6.05957 6.05957v96.9463zM30.2959 214.722c0 6.05957 0 6.05957 6.05957 6.05957h218.13c6.05859 0 6.05859 0 6.05859 -6.05957v-96.9463
c0 -6.05957 0 -6.05957 -6.05859 -6.05957h-218.13c-6.05957 0 -6.05957 0 -6.05957 6.05957v96.9463zM30.2959 102.627c0 6.05957 0 6.05957 6.05957 6.05957h218.13c6.05859 0 6.05859 0 6.05859 -6.05957v-75.7393c0 -6.05957 0 -6.05957 -6.05859 -6.05957h-218.13
c-6.05957 0 -6.05957 0 -6.05957 6.05957v75.7393zM59.0771 10.2246v-1.51465h176.133v1.51465v1.51465h-176.133v-1.51465zM59.0771 -1.89355v-1.51465h176.133v1.51465v1.51465h-176.133v-1.51465zM59.0771 -14.0117v-1.51465h176.133v1.51465v1.51465h-176.133v-1.51465z
" />
    <glyph glyph-name="arrow_drop_up" unicode="&#xf1c8;" 
d="M0 192l256 256l256 -256h-512z" />
    <glyph glyph-name="expand_more" unicode="&#xf1cf;" 
d="M452.267 422.401l59.7334 -59.7334l-256 -256l-256 256l59.7334 59.7334l196.267 -196.267z" />
    <glyph glyph-name="ic-search" unicode="&#xf199;" 
d="M490.68 0.246094v0c12.0967 -11.9688 12.0967 -31.3281 0 -43.2705c-6.0625 -5.9707 -13.9893 -8.94336 -21.915 -8.94336c-7.95312 0 -15.8789 2.97266 -21.9414 8.94336l-103.981 102.64c-35.541 -25.042 -78.8975 -39.9824 -125.785 -39.9824
c-119.694 0 -217.057 96.0898 -217.057 214.17c0 118.107 97.3623 214.197 217.057 214.197c119.667 0 217.029 -96.0898 217.029 -214.197c0 -49.7412 -17.4365 -95.5107 -46.415 -131.89zM61.9883 233.803v0c0 -84.3574 69.5811 -152.96 155.068 -152.96
c85.4883 0 155.013 68.6025 155.013 152.96c0 84.3584 -69.5244 152.987 -155.013 152.987c-85.4873 0 -155.068 -68.6289 -155.068 -152.987zM482.758 -6.55469l-95.0967 108.463c29.8174 37.4424 46.4141 83.5 46.4141 131.892c0 118.368 -97.5879 214.2 -217.025 214.2
c-119.46 0 -217.05 -95.8301 -217.05 -214.2c0 -118.348 97.5918 -214.175 217.05 -214.175c46.8057 0 87.4121 15.4043 125.987 39.7871l103.755 -102.407c17.9834 18.2197 35.9658 36.4404 35.9658 36.4404zM332.75 115.145l-19.3965 -13.6689
c-28.2207 -19.8867 -61.4053 -30.6504 -96.3037 -30.6504c-91.791 0 -165.85 73.5723 -165.85 162.975c0 89.4307 74.0596 163 165.85 163c91.7627 0 165.825 -73.5684 165.825 -163c0 -36.6162 -12.4375 -71.3311 -35.251 -99.9766zM10.7998 233.8
c0 -112.967 92.8193 -204.149 206.25 -204.149c113.432 0 206.226 91.1621 206.226 204.149c0 112.981 -92.7842 204.2 -206.226 204.2c-113.438 0 -206.25 -91.2148 -206.25 -204.2zM62 233.8c0 84.165 69.3877 153 155.05 153c85.6592 0 155.025 -68.8311 155.025 -153
c0 -84.1621 -69.3564 -152.95 -155.025 -152.95s-155.05 68.8174 -155.05 152.95zM10.7998 233.8c0 -112.967 92.8193 -204.149 206.25 -204.149c113.432 0 206.226 91.1621 206.226 204.149c0 112.981 -92.7842 204.2 -206.226 204.2
c-113.438 0 -206.25 -91.2148 -206.25 -204.2zM62 233.8c0 84.165 69.3877 153 155.05 153c85.6592 0 155.025 -68.8311 155.025 -153c0 -84.1621 -69.3564 -152.95 -155.025 -152.95s-155.05 68.8174 -155.05 152.95z" />
    <glyph glyph-name="ic-copy" unicode="&#xf179;" 
d="M384 112v176h-96c-17.6641 0 -32 14.3682 -32 32v96h-112c-8.83203 0 -16 -7.16797 -16 -16v-80h48c4.25586 0 8.32031 -1.69629 11.3281 -4.67188l128 -128c2.97559 -3.00781 4.67188 -7.07227 4.67188 -11.3281v-80h48c8.7998 0 16 7.2002 16 16zM192 192h73.376
l-73.376 73.376v-73.376zM288 -16v176h-96c-17.6318 0 -32 14.3682 -32 32v96h-112c-8.83203 0 -16 -7.16797 -16 -16v-288c0 -8.7998 7.16797 -16 16 -16h224c8.7998 0 16 7.2002 16 16zM288 393.376v-73.376h73.376zM411.328 315.328
c2.97559 -3.00781 4.67188 -7.07227 4.67188 -11.3281v-192c0 -26.4639 -21.5361 -48 -48 -48h-48v-80c0 -26.4639 -21.5361 -48 -48 -48h-224c-26.4639 0 -48 21.5361 -48 48v288c0 26.4639 21.5361 48 48 48h48v80c0 26.4639 21.5361 48 48 48h128
c4.25586 0 8.32031 -1.69629 11.3281 -4.67188z" />
    <glyph glyph-name="ic-tooltip" unicode="&#xf19f;" 
d="M0 236.294v1.69629c-0.00976562 39.2842 -0.0400391 131.279 37.7705 169.514c40.0625 40.5156 97.4902 40.5049 170.234 40.4951h7.40137c72.7236 0.0205078 130.172 0.0205078 170.224 -40.4951c37.377 -37.8105 37.791 -128.181 37.7812 -168.181l0.3125 -0.313477
v-4.72461c0.0107422 -39.2842 0.0410156 -131.28 -37.7705 -169.504c-39.3955 -39.8496 -95.6025 -40.5059 -166.609 -40.5059h-3.64551h-7.37012c-72.7334 0.0410156 -130.172 -0.0195312 -170.255 40.5059c-37.8105 38.2236 -38.0322 130.331 -38.0225 169.614v3.15039z
M168.526 222.014c17.3184 0 31.2979 14.1953 31.2979 31.7793c0 17.585 -13.9795 31.7793 -31.2979 31.7793c-17.3174 0 -31.2979 -14.1943 -31.2979 -31.7793c0 -17.584 13.9805 -31.7793 31.2979 -31.7793zM293.718 285.572h-83.4609v-74.1514h-83.4609v95.3379h-20.8652
v-158.896h20.8652v31.7793h187.787v-31.7793h20.8652v95.3379c0 23.4102 -18.6748 42.3721 -41.7305 42.3721zM377.173 159.902c19.6143 0 35.5723 -16.416 35.5723 -36.5947v-74.3652c0 -0.991211 -0.114258 -1.9502 -0.342773 -2.87207
c-4.52539 -60.7852 -53.9951 -108.084 -113.543 -108.084c-30.7861 0 -59.626 12.4395 -81.2148 35.0332l-83.6416 86.0439c-6.7168 6.90918 -10.417 16.1006 -10.417 25.874s3.69629 18.9609 10.417 25.874c13.8691 14.2686 36.4375 14.2686 50.3066 0l12.7139 -13.0781
v137.121c0 20.1777 15.957 36.5938 35.5723 36.5938c19.6143 0 35.5723 -16.416 35.5723 -36.5938v-27.751c3.91992 1.53711 8.1748 2.37793 12.6182 2.37793c16.6025 0 30.5898 -11.7637 34.4912 -27.6133c4.21582 1.82031 8.84766 2.82324 13.7002 2.82324
c16.6104 0 30.5898 -11.7637 34.4951 -27.6133c4.21484 1.82031 8.84766 2.82422 13.7002 2.82422zM389.792 51.0215h-0.0244141v72.2822c0 7.15625 -5.6582 12.9814 -12.6182 12.9814c-6.95312 0 -12.6191 -5.8252 -12.6191 -12.9814v-12.3945
c0 -6.51758 -5.13184 -11.8047 -11.4746 -11.8047c-6.33496 0 -11.4746 5.2832 -11.4746 11.8047v12.3945v24.79c0 7.15625 -5.65527 12.9814 -12.6191 12.9814c-6.95215 0 -12.6191 -5.82129 -12.6191 -12.9814v-24.79c0 -6.5166 -5.13574 -11.8047 -11.4746 -11.8047
c-6.33496 0 -11.4746 5.2832 -11.4746 11.8047v24.79v24.79c0 7.15625 -5.6582 12.9814 -12.6191 12.9814c-6.95215 0 -12.6191 -5.82129 -12.6191 -12.9814v-49.5762c0 -6.5166 -5.13965 -11.8037 -11.4746 -11.8037s-11.4746 5.2832 -11.4746 11.8037v49.5762v61.9707
c0 7.15625 -5.6582 12.9814 -12.6182 12.9814c-6.95703 0 -12.6191 -5.82129 -12.6191 -12.9814v-165.621c0 -4.77344 -2.79199 -9.07715 -7.08594 -10.9062c-4.28711 -1.82422 -9.22168 -0.816406 -12.501 2.56055l-32.3086 33.2334
c-2.45801 2.52832 -5.69043 3.79395 -8.92285 3.79395s-6.46094 -1.26172 -8.92285 -3.79395c-2.38281 -2.45215 -3.69629 -5.71289 -3.69629 -9.17969s1.31348 -6.72754 3.69629 -9.17871l83.6816 -86.085c0.0273438 -0.0244141 0.0507812 -0.0527344 0.0742188 -0.0771484
c17.2432 -18.0576 40.2832 -28.0059 64.876 -28.0059c48.1084 0 87.9834 38.6621 90.7715 88.0186c0.03125 0.481445 0.0820312 0.947266 0.161133 1.4082z" />
    <glyph glyph-name="ic-less" unicode="&#xf18d;" 
d="M-0 438.248v-68.2666h512v68.2666h-512z" />
    <glyph glyph-name="ic-user" unicode="&#xf1a5;" 
d="M256 448v0c141.397 0 256 -114.603 256 -256s-114.603 -256 -256 -256s-256 114.603 -256 256s114.603 256 256 256zM327.14 247.41v0c0 39.3096 -31.8008 71.1104 -71.1113 71.1104s-71.1113 -31.8008 -71.1113 -71.1104c0 -39.2256 31.8008 -71.1113 71.1113 -71.1113
s71.1113 31.8857 71.1113 71.1113zM256.028 151.523v0c-65.2803 0 -119.694 -44.2021 -136.419 -104.191c35.6689 -33.6504 83.5977 -54.4434 136.391 -54.4434c52.8496 0 100.778 20.793 136.448 54.5c-16.7256 59.9326 -71.168 104.135 -136.42 104.135z" />
    <glyph glyph-name="ic-xlsx" unicode="&#xf1a7;" 
d="M460.8 246.045v0.274414c13.623 0 26.6846 -5.81055 36.2939 -16.1445s14.9736 -24.3398 14.9053 -38.9189v-109.577c0 -30.2588 -22.9229 -54.7881 -51.1992 -54.7881h-409.6c-28.2773 0 -51.2002 24.5293 -51.2002 54.7881v109.577
c0 30.2598 22.9229 54.7891 51.2002 54.7891h409.6zM423.854 242.303v136.725c0.0498047 8.9082 -3.38574 17.4697 -9.5459 23.7871c-6.16113 6.31641 -14.5371 9.86914 -23.2744 9.86816h-221.117v-43.5986c-0.102539 -28.999 -23.1328 -52.4814 -51.5742 -52.5859
h-41.4482v-300.604c0 -18.4814 14.6943 -33.4639 32.8203 -33.4639h281.319c18.126 0 32.8203 14.9824 32.8203 33.4639v33.751h28.1318v-33.751c-0.102539 -34.2793 -27.332 -62.042 -60.9521 -62.1475h-281.319c-33.6201 0.105469 -60.8486 27.8682 -60.9521 62.1475
v312.268c0.0234375 3.79883 1.50488 7.43652 4.12598 10.1348l96.9609 98.8623c2.63574 2.69043 6.21094 4.2041 9.94043 4.20703h231.244c33.6201 -0.104492 60.8496 -27.8682 60.9521 -62.1475v-136.725zM71.3877 142.163l-44.2764 -66.5107h32.9629l23.9912 45.251
l26.5264 -45.251h33.7432l-42.5205 68.0713l43.6914 65.3408h-32.3779l-24.1865 -44.0801l-26.5264 44.0801h-31.793zM162.67 209.064v-133.412h89.5264v22.04h-59.0996v111.372h-30.4268zM265.265 79.748c13.1338 -4.55078 27.8916 -6.82617 44.2764 -6.82617
c9.62207 0 17.7168 1.00781 24.2832 3.02246c6.56641 2.01562 12.1904 5.23438 16.8711 9.65527c7.41211 7.02148 11.1182 16.3838 11.1182 28.0869c0 9.3623 -2.04785 16.8389 -6.14453 22.4307c-4.0957 5.59082 -9.00391 9.71973 -14.7256 12.3857
c-5.72168 2.66504 -13.0029 5.16797 -21.8457 7.50879c-6.11133 1.69043 -10.792 3.18555 -14.043 4.48633c-3.25098 1.2998 -5.94922 3.02344 -8.09473 5.16895s-3.21777 4.9082 -3.21777 8.28906c0 4.55176 1.65723 8.0625 4.97363 10.5322
c3.31543 2.4707 8.87402 3.70605 16.6758 3.70605c9.62305 0 20.2852 -1.55957 31.9883 -4.68066l4.68066 22.625c-5.07129 1.69043 -10.9219 3.02344 -17.5537 3.99902c-6.63184 0.974609 -13.1982 1.46289 -19.7002 1.46289
c-14.9531 0 -26.9814 -3.25098 -36.084 -9.75293c-9.10156 -6.50098 -13.6533 -16.2539 -13.6533 -29.2568c0 -9.62207 2.08105 -17.2295 6.24219 -22.8203c4.16113 -5.5918 9.16699 -9.6875 15.0186 -12.2881s13.1982 -5.07129 22.04 -7.41211
c8.58203 -2.20996 14.8564 -4.4209 18.8223 -6.63184c3.96582 -2.20996 5.94922 -5.59082 5.94922 -10.1426c0 -6.11133 -2.11328 -10.4668 -6.33887 -13.0674c-4.22656 -2.60059 -10.8906 -3.90137 -19.9932 -3.90137c-5.07129 0 -11.0527 0.618164 -17.9443 1.85352
c-6.8916 1.23438 -13.1982 2.82812 -18.9189 4.77832zM417.792 142.163l-44.2754 -66.5107h32.9629l23.9902 45.251l26.5264 -45.251h33.7441l-42.5205 68.0713l43.6904 65.3408h-32.3779l-24.1855 -44.0801l-26.5273 44.0801h-31.792z" />
    <glyph glyph-name="ic-password" unicode="&#xf191;" 
d="M36.6006 256.293v0l-0.0849609 57.6191c0.69043 -0.874023 2.30957 -2.85645 4.79102 -5.78711c4.30273 -5.08301 9.33887 -10.7979 15.0381 -16.9844c16.3506 -17.7451 34.5762 -35.5049 54.0654 -51.9736c51.9453 -43.8955 102.545 -69.8223 144.813 -70.4287
c0.756836 -0.00878906 0.756836 -0.00878906 1.51074 -0.0107422c42.4854 0 93.3242 25.9346 145.457 70.3262c19.3184 16.4502 37.3652 34.1924 53.5391 51.9189c5.6377 6.17969 10.6162 11.8877 14.8682 16.9639c2.4502 2.92578 4.04688 4.90332 4.72559 5.77148
l0.0693359 -57.4072c-0.683594 0.871094 -2.29199 2.85254 -4.75684 5.78223c-4.27637 5.08203 -9.2832 10.7969 -14.9502 16.9824c-16.2598 17.7451 -34.3926 35.5059 -53.7939 51.9736c-52.3584 44.4434 -103.357 70.415 -145.865 70.415h-0.0566406
c-42.5 -0.0224609 -93.4893 -25.9941 -145.841 -70.4189c-19.4082 -16.4697 -37.5479 -34.2305 -53.8135 -51.9756c-5.66992 -6.18652 -10.6777 -11.9014 -14.9561 -16.9844c-2.4668 -2.92969 -4.0752 -4.91113 -4.75977 -5.78223v0zM0 285.049
c0 0 128.027 162.951 256.027 162.951s255.973 -162.951 255.973 -162.951s-127.266 -162.867 -255.266 -162.867s-256.734 162.867 -256.734 162.867v0zM256 215.272c-38.5596 0 -69.8184 31.2588 -69.8184 69.8184s31.2588 69.8184 69.8184 69.8184
s69.8184 -31.2588 69.8184 -69.8184s-31.2588 -69.8184 -69.8184 -69.8184z" />
    <glyph glyph-name="ic-info" unicode="&#xf18c;" 
d="M256 -64c-141.397 0 -256 114.603 -256 256s114.603 256 256 256s256 -114.603 256 -256s-114.603 -256 -256 -256zM241.777 106.667c-7.85059 0 -14.2217 -6.37207 -14.2217 -14.2227v-28.4443c0 -7.85059 6.37109 -14.2227 14.2217 -14.2227h28.4453
c7.85059 0 14.2217 6.37207 14.2217 14.2227v28.4443c0 7.85059 -6.37109 14.2227 -14.2217 14.2227h-28.4453zM241.777 334.223h28.4453c7.85059 0 14.2217 -6.37207 14.2217 -14.2227v-142.223c0 -7.85059 -6.37109 -14.2217 -14.2217 -14.2217h-28.4453
c-7.85059 0 -14.2217 6.37109 -14.2217 14.2217v142.223c0 7.85059 6.37109 14.2227 14.2217 14.2227z" />
    <glyph glyph-name="ic-double-arrow" unicode="&#xf17c;" 
d="M252.587 400.213l-157.014 -157.013l157.014 -157.014l-47.7871 -47.7861l-204.8 204.8l204.8 204.8zM491.52 400.213l-157.013 -157.013l157.013 -157.014l-47.7861 -47.7861l-204.8 204.8l204.8 204.8z" />
    <glyph glyph-name="ic-cart" unicode="&#xf16d;" 
d="M45.6396 399.067c48.4082 48.9561 117.801 48.9434 205.7 48.9316h8.94238c87.875 0.0244141 157.291 0.0244141 205.688 -48.9316c45.1641 -45.6875 45.6641 -154.885 45.6514 -203.219l0.378906 -6.08789c0.0117188 -47.4678 0.0488281 -158.629 -45.6396 -204.816
c-47.6035 -48.1514 -115.52 -48.9443 -201.32 -48.9443h-4.4043h-8.90527c-87.8877 0.0488281 -157.292 -0.0244141 -205.725 48.9443c-45.6885 46.1875 -45.957 157.482 -45.9443 204.951v3.80566c-0.0732422 48.0049 -0.110352 159.166 45.5781 205.366zM204.8 115.2
c-14.0801 0 -25.4717 -11.5205 -25.4717 -25.6006s11.3916 -25.5996 25.4717 -25.5996s25.6006 11.5195 25.6006 25.5996s-11.5205 25.6006 -25.6006 25.6006zM128 320v-25.5996h25.5996l46.0801 -97.1523l-17.2793 -31.3604
c-2.04883 -3.58398 -3.2002 -7.80762 -3.2002 -12.2881c0 -14.0801 11.5195 -25.5996 25.5996 -25.5996h153.601v25.5996h-148.225c-1.79199 0 -3.2002 1.4082 -3.2002 3.2002l0.384766 1.53613l11.5195 20.8643h95.3604c9.59961 0 18.0479 5.24805 22.3994 13.1836
l45.8242 83.0723c1.02441 1.79199 1.53613 3.96777 1.53613 6.14355c0 7.04004 -5.75977 12.8008 -12.7998 12.8008h-189.312l-12.0312 25.5996h-41.8564zM332.8 115.2c-14.0801 0 -25.4717 -11.5205 -25.4717 -25.6006s11.3916 -25.5996 25.4717 -25.5996
s25.6006 11.5195 25.6006 25.5996s-11.5205 25.6006 -25.6006 25.6006z" />
    <glyph glyph-name="6-col-bg" unicode="&#xf163;" 
d="M0 330.018v117.982h63.0723v-117.982h-63.0723zM179.571 330.018v117.982h63.0723v-117.982h-63.0723zM359.142 330.018v117.982h63.0732v-117.982h-63.0732zM89.7852 330.018v117.982h63.0732v-117.982h-63.0732zM269.356 330.018v117.982h63.0723v-117.982h-63.0723z
M448.928 330.018v117.982h63.0723v-117.982h-63.0723z" />
    <glyph glyph-name="ic-desktop-callout" unicode="&#xf17a;" 
d="M62.4834 385.517c83.3125 83.3115 218.388 83.3115 301.699 0c83.3115 -83.3125 83.3115 -218.388 0 -301.699l-138.76 -138.76c-6.7207 -6.7207 -17.502 -6.67676 -24.1787 0l-138.761 138.76c-83.3115 83.3115 -83.3115 218.387 0 301.699z" />
    <glyph glyph-name="ic-btn" unicode="&#xf169;" 
d="M427.842 336.753c66.3926 -66.3926 66.3926 -174.037 0 -240.431v0c-66.3936 -66.3926 -174.038 -66.3926 -240.431 0l-120.216 120.216l120.216 120.215c66.3926 66.3936 174.037 66.3936 240.431 0v0zM427.842 336.753c66.3926 -66.3926 66.3926 -174.037 0 -240.431v0
c-66.3936 -66.3926 -174.038 -66.3926 -240.431 0l-120.216 120.216l120.216 120.215c66.3926 66.3936 174.037 66.3936 240.431 0v0z" />
    <glyph glyph-name="mobile" unicode="&#xf1b0;" 
d="M14.417 407.579c0 26.9473 0 26.9473 26.9473 26.9473h186.88c26.9473 0 26.9473 0 26.9473 -26.9473v-431.158c0 -26.9473 0 -26.9473 -26.9473 -26.9473h-186.88c-26.9473 0 -26.9473 0 -26.9473 26.9473v431.158zM13.4736 336.033h241.718zM13.4736 23.04h237.811z
M120.859 -13.0693c0 7.14355 5.79102 12.9346 12.9346 12.9346s12.9346 -5.79102 12.9346 -12.9346s-5.79102 -12.9346 -12.9346 -12.9346s-12.9346 5.79102 -12.9346 12.9346z" />
    <glyph glyph-name="ic-select" unicode="&#xf19a;" 
d="M347.42 294.4h-307.2l153.601 153.6zM342.274 89.5996l-148.454 -148.454l-148.454 148.454h296.908z" />
    <glyph glyph-name="ic-hotel" unicode="&#xf18b;" 
d="M0 192.188v2.0498c-0.0117188 47.4678 -0.0488281 158.629 45.6396 204.829c48.4082 48.9561 117.801 48.9434 205.7 48.9316h8.94238c87.875 0.0244141 157.291 0.0244141 205.688 -48.9316c45.1641 -45.6875 45.6641 -154.885 45.6514 -203.219l0.378906 -0.37793
v-5.70996c0.0117188 -47.4678 0.0488281 -158.629 -45.6396 -204.816c-47.6035 -48.1514 -115.52 -48.9443 -201.32 -48.9443h-4.4043h-8.90527c-87.8877 0.0488281 -157.292 -0.0244141 -205.725 48.9443c-45.6885 46.1875 -45.957 157.482 -45.9443 204.951v3.80566z
M203.637 174.934c20.9258 0 37.8174 17.1514 37.8174 38.3994s-16.8916 38.4004 -37.8174 38.4004c-20.9268 0 -37.8184 -17.1523 -37.8184 -38.4004s16.8916 -38.3994 37.8184 -38.3994zM354.909 251.733h-100.849v-89.5996h-100.849v115.199h-25.2119v-192h25.2119
v38.4004h226.909v-38.4004h25.2119v115.2c0 28.2881 -22.5645 51.2002 -50.4238 51.2002z" />
    <glyph glyph-name="favorite" unicode="&#xf1d0;" 
d="M256 362.667c19.0576 49.2656 72.3906 85.333 128 85.333c72.334 0 128 -54.9551 128 -128c0 -100.381 -107.89 -178.005 -256 -327.111c-148.11 149.106 -256 226.73 -256 327.111c0 73.0449 55.666 128 128 128c55.5518 0 108.942 -36.0674 128 -85.333z" />
    <glyph glyph-name="ic-xml" unicode="&#xf1a8;" 
d="M393.846 186.88v196.923c0.0527344 9.17383 -3.55469 17.9902 -10.0234 24.4961c-6.46777 6.50488 -15.2637 10.1631 -24.4375 10.1631h-232.173v-44.8984c-0.107422 -29.8643 -24.29 -54.0459 -54.1533 -54.1543h-43.5205v-309.563
c0 -19.0322 15.4297 -34.4609 34.4619 -34.4609h295.385c19.0322 0 34.4609 15.4287 34.4609 34.4609v9.64941h29.5391v-9.64941c-0.108398 -35.3008 -28.6992 -63.8916 -64 -64h-295.385c-35.3018 0.108398 -63.8916 28.6992 -64 64v321.576
c0.0244141 3.91113 1.58008 7.65723 4.33203 10.4365l101.81 101.81c2.7666 2.77051 6.52148 4.32812 10.4365 4.33203h242.807c35.3008 -0.108398 63.8916 -28.6982 64 -64v-196.923zM456.861 181.563v0.196289c10.4795 0 20.5273 -4.17578 27.9189 -11.6045
s11.5186 -17.4971 11.4658 -27.9766v-78.7695c0 -21.752 -17.6328 -39.3848 -39.3848 -39.3848h-315.077c-21.751 0 -39.3838 17.6328 -39.3838 39.3848v78.7695c0 21.751 17.6328 39.3848 39.3838 39.3848h315.077zM244.185 40.7627l-35.249 61.2432l35.6426 60.2588
h-16.541l-26.1914 -49.0342l-26.9775 49.0342h-16.7393l34.6592 -60.8496l-36.2344 -60.6523h17.3291l25.7969 49.0342l27.1758 -49.0342h17.3291zM366.671 40.7627v121.502h-13.5879l-42.7324 -79.9512l-42.3379 79.9512h-13.7852v-121.502h13.9814v91.1758
l35.0527 -65.3789h13.1934l35.25 64.5908v-90.3877h14.9658zM455.877 40.7627v12.4062h-52.7754v109.096h-15.9512v-121.502h68.7266z" />
    <glyph glyph-name="refresh" unicode="&#xf1d6;" 
d="M256 448c70.4004 0 134.4 -32 192 -64l64 64v-224h-224l96 96c-28.7998 41.5996 -73.5996 64 -128 64c-105.6 0 -192 -86.4004 -192 -192s86.4004 -192 192 -192c83.2002 0 153.6 54.4004 192 128h64c-38.4004 -108.8 -137.6 -192 -256 -192
c-140.8 0 -256 115.2 -256 256s115.2 256 256 256z" />
    <glyph glyph-name="ic-graphics-blue" unicode="&#xf183;" 
d="M0 256c0 192 0 192 192 192h128c192 0 192 0 192 -192v-128c0 -192 0 -192 -192 -192h-128c-192 0 -192 0 -192 192v128zM0 256c0 192 0 192 192 192h128c192 0 192 0 192 -192v-128c0 -192 0 -192 -192 -192h-128c-192 0 -192 0 -192 192v128zM256 279.678
l80.9268 -44.3174v-86.7207l-80.9268 -44.3174l-80.9268 44.3174v86.7207zM245.753 322.711l-102.26 -56l-11.0869 -6.07129v-12.6396v-112v-12.6396l11.0869 -6.07129l102.26 -56l10.2471 -5.61133l10.2471 5.61133l102.26 56l11.0869 6.07129v12.6396v112v12.6396
l-11.0869 6.07129l-102.26 56l-10.2471 5.61133z" />
    <glyph glyph-name="ic-driving" unicode="&#xf17f;" 
d="M256 -64c-141.385 0 -256 114.615 -256 256s114.615 256 256 256s256 -114.615 256 -256c0 -67.8955 -26.9717 -133.01 -74.9805 -181.02c-48.0098 -48.0088 -113.124 -74.9805 -181.02 -74.9805zM256 398.507c-114.051 0 -206.507 -92.4561 -206.507 -206.507
s92.4561 -206.507 206.507 -206.507s206.507 92.4561 206.507 206.507c-0.118164 114.002 -92.5049 206.389 -206.507 206.507zM425.387 240c4.47949 -26.667 4.69336 -54.6133 6.18652 -85.5469c-90.2402 -3.41309 -126.08 -52.2666 -132.906 -131.413h-87.2539
c-6.39941 79.5732 -43.5195 129.28 -132.267 133.12c3.2002 32 4.48047 61.4395 9.38672 90.4531c3.79297 9.7959 11.5381 17.54 21.333 21.333c94.6641 37.6816 200.365 36.5312 294.188 -3.19922c10.459 -4.63672 18.2881 -13.7188 21.333 -24.7471zM252.587 173.227
c18.1787 0.117188 32.8535 14.8877 32.8535 33.0664c-0.000976562 13.3936 -8.08008 25.4648 -20.4629 30.5703c-12.3818 5.10449 -26.6211 2.23633 -36.0615 -7.26465c-9.43945 -9.50098 -12.2158 -23.7588 -7.03027 -36.1074
c5.18457 -12.3496 17.3076 -20.3506 30.7012 -20.2646z" />
    <glyph glyph-name="sort-down" unicode="&#xf1b4;" 
d="M0 448l256 -341.333l256 341.333h-512z" />
    <glyph glyph-name="layout-labtop" unicode="&#xf1ab;" 
d="M0 444.369c0 3.63086 0 3.63086 3.63086 3.63086h504.738c3.63086 0 3.63086 0 3.63086 -3.63086v-335.887c0 -3.63184 0 -3.63184 -3.63086 -3.63184h-504.738c-3.63086 0 -3.63086 0 -3.63086 3.63184v335.887zM0 79.4326c0 3.63086 0 3.63086 3.63086 3.63086h504.738
c3.63086 0 3.63086 0 3.63086 -3.63086v-29.0498c0 -3.63086 0 -3.63086 -3.63086 -3.63086h-504.738c-3.63086 0 -3.63086 0 -3.63086 3.63086v29.0498zM21.7871 130.27h468.426v295.943h-468.426v-295.943zM32.6807 415.319c0 3.63086 0 3.63086 3.63184 3.63086h437.56
c3.63184 0 3.63184 0 3.63184 -3.63086v-49.0215c0 -3.63086 0 -3.63086 -3.63184 -3.63086h-437.56c-3.63184 0 -3.63184 0 -3.63184 3.63086v49.0215zM32.6807 357.22c0 3.63086 0 3.63086 3.63184 3.63086h217.872c3.63086 0 3.63086 0 3.63086 -3.63086v-168.851
c0 -3.63184 0 -3.63184 -3.63086 -3.63184h-217.872c-3.63184 0 -3.63184 0 -3.63184 3.63184v168.851zM259.631 357.22c0 3.63086 0 3.63086 3.63184 3.63086h210.609c3.63184 0 3.63184 0 3.63184 -3.63086v-94.4111c0 -3.63086 0 -3.63086 -3.63184 -3.63086h-210.609
c-3.63184 0 -3.63184 0 -3.63184 3.63086v94.4111zM259.631 253.73c0 3.63086 0 3.63086 3.63184 3.63086h210.609c3.63184 0 3.63184 0 3.63184 -3.63086v-65.3613c0 -3.63184 0 -3.63184 -3.63184 -3.63184h-210.609c-3.63184 0 -3.63184 0 -3.63184 3.63184v65.3613z
M39.9277 165.674v-0.908203h209.32v0.908203v0.908203h-209.32v-0.908203zM268.693 165.674v-0.908203h209.321v0.908203v0.908203h-209.321v-0.908203zM39.9277 158.411v-0.907227h209.32v0.907227v0.908203h-209.32v-0.908203zM268.693 158.411v-0.907227h209.321
v0.907227v0.908203h-209.321v-0.908203zM39.9277 151.149v-0.908203h209.32v0.908203v0.907227h-209.32v-0.907227zM268.693 151.149v-0.908203h209.321v0.908203v0.907227h-209.321v-0.907227z" />
    <glyph glyph-name="pattern" unicode="&#xf1b1;" 
d="M102.547 379.109l8.41309 47.6807l51.0273 -7.55273l-8.73438 -47.04zM101.742 377.971l51.9277 -7.0791l0.583008 -0.0791016l0.108398 0.579102l8.95898 48.25l0.117188 0.630859l-0.634766 0.09375l-52.2568 7.73535l-0.594727 0.0888672l-0.104492 -0.592773
l-8.62988 -48.9072l-0.111328 -0.632812zM142.438 365.763l0.619141 0.0849609l-0.0917969 0.618164l-7.23145 48.7764l-0.0898438 0.607422l-0.608398 -0.0859375l-53.1299 -7.51172l-0.613281 -0.0869141l0.0878906 -0.613281l6.98242 -48.6123l0.0878906 -0.608398
l0.608398 0.0830078zM141.65 366.902l-52.1514 -7.17871l-6.80664 47.3906l51.9082 7.33887zM333.562 343.653l0.612305 0.0878906l-0.0878906 0.612305l-7.04492 49.0459l-0.0878906 0.612305l-0.612305 -0.0878906l-52.3398 -7.51758l-0.612305 -0.0878906
l0.0878906 -0.612305l7.04492 -49.0469l0.0878906 -0.612305l0.612305 0.0878906zM332.774 344.79l-51.1152 -7.34277l-6.86914 47.8223l51.1162 7.3418zM413.613 369.975l0.551758 0.0849609l-0.0283203 0.557617l-2.20898 44.2959l-0.0341797 0.683594
l-0.676758 -0.103516l-52.625 -8.06543l-0.551758 -0.0849609l0.0273438 -0.557617l2.20898 -44.2959l0.0341797 -0.683594l0.676758 0.103516zM412.874 371.113l-51.3965 -7.87793l-2.14648 43.0547l51.3955 7.87695zM389.006 339.585l-0.0722656 0.447266
l-0.448242 0.0664062l-52.7676 7.7627l-0.847656 0.125l0.149414 -0.84375l8.70996 -49.252l0.0791016 -0.447266l0.450195 -0.0585938l51.8564 -6.72754l0.822266 -0.106445l-0.131836 0.818359zM387.857 338.94l7.59473 -46.9502l-50.584 6.5625l-8.48145 47.9609z
M259.083 346.843l-6.83984 47.6143l21.2842 -9.09473l6.83887 -47.6143zM258.277 345.843l22.6143 -9.66406l1.01172 -0.432617l-0.15625 1.08887l-7.04492 49.0469l-0.0498047 0.34375l-0.319336 0.136719l-22.6152 9.66406l-1.01172 0.432617l0.15625 -1.08887
l7.0459 -49.0469l0.0498047 -0.34375zM330.453 396.096l-0.197266 0.573242l-0.578125 -0.1875l-100.148 -32.4951l-0.611328 -0.198242l0.22168 -0.603516l17.4746 -47.4629l0.207031 -0.5625l0.568359 0.189453l98.8916 32.96l0.592773 0.198242l-0.204102 0.589844z
M329.482 395.118l15.8154 -45.834l-97.7305 -32.5723l-17.0449 46.2969zM88.8994 359.607l-2.44336 -0.337891l2.31348 -0.854492l24.0557 -8.88965l0.148438 -0.0546875l0.157227 0.0234375l51.1631 7.69531l2.28418 0.342773l-2.15039 0.84375l-21.8486 8.57422
l-0.150391 0.0595703l-0.160156 -0.0224609zM91.5107 358.721l50.7676 7.01953l19.5479 -7.67188l-48.7217 -7.32812zM89.5078 359.691l-6.81445 47.4229l51.9082 7.33887l7.04883 -47.5508zM89.0684 358.383l53.3691 7.37988l0.619141 0.0849609l-0.0917969 0.618164
l-7.23047 48.7764l-0.0898438 0.607422l-0.608398 -0.0859375l-53.1289 -7.51172l-0.614258 -0.0869141l0.0878906 -0.613281l6.99121 -48.6445l0.0869141 -0.609375zM81.9072 408.253l-2.42676 -0.342773l2.29883 -0.849609l24.0537 -8.88965l0.150391 -0.0556641
l0.158203 0.0244141l50.6377 7.78125l2.24023 0.344727l-2.10449 0.84082l-21.5625 8.61914l-0.152344 0.0615234l-0.163086 -0.0234375zM84.5059 407.371l50.541 7.14551l19.3047 -7.7168l-48.2393 -7.41309zM135.892 414.178l20.2363 -8.08887l7.29785 -47.3203
l-20.5137 8.05078zM134.511 415.061l7.23047 -48.7764l0.0527344 -0.354492l0.333008 -0.130859l21.8486 -8.57422l1.00098 -0.393555l-0.164062 1.06348l-7.5166 48.7324l-0.0537109 0.348633l-0.328125 0.130859l-21.5625 8.61914l-0.999023 0.399414zM216.674 363.125
l0.612305 0.0878906l-0.0878906 0.612305l-7.07031 49.2197l-0.0878906 0.612305l-0.612305 -0.0878906l-49.2197 -7.07031l-0.612305 -0.0878906l0.0878906 -0.612305l7.06934 -49.2197l0.0878906 -0.612305l0.612305 0.0878906zM215.886 364.262l-47.9961 -6.89453
l-6.89355 47.9961l47.9951 6.89355zM224.962 341.034l0.612305 -0.0830078l0.0830078 0.612305l7.68359 56.8525l0.0820312 0.613281l-0.612305 0.0830078l-56.8535 7.68066l-0.613281 0.0830078l-0.0830078 -0.612305l-7.68164 -56.8525l-0.0830078 -0.612305
l0.612305 -0.0830078zM224.515 342.342l-55.6279 7.5166l7.5166 55.626l55.6289 -7.51465zM89.0635 358.415l0.612305 0.0878906l-0.0878906 0.612305l-6.98242 48.6123l-0.0878906 0.611328l-0.612305 -0.0878906l-52.3838 -7.52246l-0.612305 -0.0878906
l0.0878906 -0.612305l6.98242 -48.6133l0.0878906 -0.612305l0.612305 0.0878906zM88.2754 359.551l-51.1592 -7.34766l-6.80664 47.3887l51.1592 7.34766zM101.745 377.97l0.586914 -0.0771484l0.102539 0.583008l8.62988 48.9072l0.113281 0.643555l-0.648438 0.078125
l-52.2373 6.27344l-0.575195 0.0693359l-0.106445 -0.570312l-8.95898 -48.25l-0.118164 -0.640625l0.645508 -0.0849609zM101.32 379.273l-51.334 6.76855l8.73438 47.0391l51.0117 -6.12695zM102.606 320.307l0.584961 0.192383l-0.19043 0.585938l-15.2275 46.8965
l-0.189453 0.584961l-0.585938 -0.186523l-51.8926 -16.4746l-0.618164 -0.196289l0.224609 -0.608398l17.3447 -46.8584l0.207031 -0.55957l0.566406 0.1875zM101.635 321.288l-48.626 -16.0566l-16.9111 45.6914l50.6895 16.0928zM39.2578 324.525l0.43457 0.220703
l-0.112305 0.473633l-11.2744 47.4658l-0.177734 0.748047l-0.692383 -0.333984l-26.6328 -12.8467l-0.458008 -0.220703l0.12793 -0.492188l12.4023 -47.5693l0.193359 -0.743164l0.68457 0.347656zM38.2637 325.408l-24.3857 -12.3828l-12.0801 46.335l25.4824 12.291z
M510.987 324.011l0.490234 0.209961l-0.135742 0.515625l-10.2314 38.9121l-0.178711 0.681641l-0.652344 -0.266602l-28.0195 -11.4463l-0.516602 -0.210938l0.15625 -0.535156l11.3984 -38.9629l0.195312 -0.668945l0.641602 0.274414zM510.011 324.938l-25.7217 -11.0127
l-11.0459 37.7588l26.8506 10.9688zM86.9941 368.379l-2.47559 -0.8125l2.57617 -0.386719l22.7188 -3.41602l0.141602 -0.0214844l0.135742 0.0429688l49.7393 15.6777l2.39941 0.756836l-2.47656 0.442383l-22.6934 4.05371l-0.15332 0.0273438l-0.148438 -0.0478516z
M89.8545 368.015l47.1406 15.457l20.0645 -3.58496l-47.2041 -14.8789zM137.897 383.311l21.2881 -3.80273l17.1514 -46.9668l-21.9512 5.29395zM136.369 383.896l16.9668 -46.7959l0.113281 -0.3125l0.323242 -0.078125l23.3955 -5.64258l1.12207 -0.270508
l-0.395508 1.08398l-17.6689 48.3848l-0.12207 0.333984l-0.350586 0.0625l-22.6934 4.05371l-1.05566 0.188477zM88.0264 367.062l21.4258 -3.24316l17.3057 -46.7969l-23.8711 4.41211zM86.54 367.632l15.2852 -46.9307l0.114258 -0.349609l0.361328 -0.0673828
l25.3018 -4.67578l1.06934 -0.198242l-0.376953 1.02051l-17.8096 48.1582l-0.126953 0.342773l-0.360352 0.0546875l-22.7773 3.44824l-0.991211 0.149414zM184.277 372.815l21.3408 -3.63574l16.8555 -46.1299l-21.6465 4.4668zM182.75 373.393l17.0332 -46.624
l0.118164 -0.323242l0.337891 -0.0693359l23.0713 -4.76172l1.08594 -0.224609l-0.379883 1.04199l-17.3594 47.5098l-0.123047 0.336914l-0.354492 0.0595703l-22.7451 3.87598l-1.0498 0.178711zM200.745 286.668l1.13965 -0.106445l-0.535156 1.01074l-23.4893 44.3857
l-0.162109 0.306641l-0.34668 0.0214844l-23.6484 1.4668l-1.11621 0.0693359l0.535156 -0.982422l23.7852 -43.6787l0.157227 -0.289062l0.328125 -0.0302734zM199.722 288.005l-21.8857 2.03711l-23.0928 42.4072l22.1865 -1.37598zM201.196 287.863l-22.7705 43.0264
l22.5898 -3.13965l23.0703 -42.3672zM200.736 286.669l24.3916 -2.64258l1.1748 -0.12793l-0.56543 1.03809l-23.7852 43.6787l-0.149414 0.274414l-0.308594 0.0419922l-24.0957 3.34961l-1.19629 0.166016l0.56543 -1.06738l23.4883 -44.3857l0.154297 -0.290039z
M249.381 281.803l1.1377 -0.104492l-0.53418 1.00879l-23.4893 44.3857l-0.162109 0.306641l-0.34668 0.0214844l-24.54 1.51562l-1.11621 0.0693359l0.535156 -0.982422l23.7871 -43.6787l0.158203 -0.289062l0.328125 -0.0302734zM248.356 283.138l-22.7764 2.08887
l-23.0947 42.4072l23.0791 -1.42578zM362.917 325.873l0.591797 0.273438l-0.304688 0.577148l-23.4893 44.3857l-0.275391 0.520508l-0.533203 -0.25l-98.3672 -46.0566l-0.594727 -0.27832l0.314453 -0.577148l23.7861 -43.6797l0.277344 -0.507812l0.525391 0.242188z
M361.806 326.722l-96.9521 -44.833l-23.1943 42.5938l97.2383 45.5283zM79.0068 309.225l18.6016 45.0225l12.2363 -18.3828l-17.9023 -44.834zM77.8008 308.786l13.791 -19.3975l0.657227 -0.924805l0.420898 1.05371l18.4434 46.1895l0.120117 0.301758
l-0.179688 0.270508l-13.0586 19.6201l-0.642578 0.96582l-0.443359 -1.07324l-19.1758 -46.4111l-0.130859 -0.316406zM123.498 294.233l0.844727 0.310547l-0.59375 0.676758l-65.0625 74.252l-0.276367 0.31543l-0.394531 -0.139648l-31.0332 -11.0049
l-0.851562 -0.301758l0.588867 -0.68457l64.4375 -74.9023l0.279297 -0.325195l0.40332 0.148438zM122.226 295.083l-30.4111 -11.1963l-63.5684 73.8926l29.7871 10.5635zM168.32 355.067l1.08398 -0.226562l-0.375 1.04199l-25.4043 70.4414l-0.116211 0.324219
l-0.337891 0.0712891l-22.8682 4.78809l-1.08301 0.226562l0.374023 -1.04102l25.3418 -70.4277l0.117188 -0.324219l0.337891 -0.0712891zM167.489 356.505l-21.5068 4.50488l-24.8496 69.0605l21.4463 -4.49023zM242.354 276.702l1.13379 -0.693359l-0.200195 1.31445
l-13.6631 89.5742l-0.0439453 0.28418l-0.245117 0.150391l-21.9609 13.4287l-1.13379 0.693359l0.200195 -1.31445l13.6621 -89.5762l0.0429688 -0.28418l0.246094 -0.149414zM241.865 278.451l-20.583 12.584l-13.418 87.9766l20.5811 -12.585zM407.305 279.6
l0.992188 -0.116211l-0.337891 0.939453l-16.3018 45.3506l-0.129883 0.360352l-0.379883 0.0449219l-24.4932 2.88379l-0.992188 0.116211l0.337891 -0.939453l16.3027 -45.3496l0.129883 -0.360352l0.379883 -0.0449219zM406.457 280.945l-23.1201 2.72266
l-15.835 44.0498l23.1211 -2.72266zM433.152 282.606l0.789062 -0.62207l0.200195 0.984375l9.9541 48.9229l0.0751953 0.373047l-0.298828 0.235352l-17.5039 13.8027l-0.789062 0.62207l-0.200195 -0.984375l-9.9541 -48.9229l-0.0751953 -0.373047l0.298828 -0.235352z
M433.13 284.199l-16.417 12.9453l9.67773 47.5654l16.417 -12.9453zM415.921 296.286l0.594727 -0.107422l0.121094 0.592773l9.9541 48.9238l0.125977 0.620117l-0.623047 0.111328l-32.9326 5.91699l-0.594727 0.106445l-0.121094 -0.591797l-9.9541 -48.9229
l-0.125977 -0.620117l0.623047 -0.112305zM415.545 297.61l-31.7148 5.69824l9.70703 47.7109l31.7158 -5.69824zM382.986 302.204l0.59668 -0.109375l0.120117 0.594727l9.9541 48.9219l0.125977 0.618164l-0.620117 0.114258l-20.2324 3.71387l-0.59668 0.109375
l-0.121094 -0.594727l-9.9541 -48.9238l-0.125 -0.617188l0.620117 -0.114258zM382.612 303.53l-19.0156 3.48926l9.70703 47.7119l19.0166 -3.49121zM294.049 291.041l0.805664 -0.664062l0.194336 1.02637l9.05176 47.8213l0.0683594 0.360352l-0.283203 0.232422
l-35.3086 29.0664l-0.805664 0.664062l-0.194336 -1.02637l-9.0498 -47.8213l-0.0683594 -0.359375l0.283203 -0.232422zM294.028 292.66l-34.2178 28.1699l8.78711 46.4346l34.2197 -28.1699zM102.497 378.827l8.37793 47.4863l16.999 -14.6221l-8.70117 -46.8574z
M101.429 378.109l17.7617 -14.9043l0.811523 -0.681641l0.193359 1.04199l8.95898 48.25l0.0654297 0.349609l-0.269531 0.232422l-18.0918 15.5615l-0.823242 0.708008l-0.189453 -1.06934l-8.62793 -48.9072l-0.0625 -0.351562zM331.48 347.787l-0.0761719 0.446289
l-0.448242 0.0615234l-108.579 15.1143l-0.841797 0.117188l0.147461 -0.836914l8.71094 -49.252l0.078125 -0.446289l0.449219 -0.0585938l108.139 -14.2754l0.832031 -0.109375l-0.141602 0.827148zM330.338 347.133l8.05176 -47.1396l-106.857 14.1055l-8.4834 47.9688z
M409.191 324.741l0.12793 0.642578l-0.648438 0.0908203l-52.5557 7.38574l-0.587891 0.0830078l-0.106445 -0.584961l-8.9209 -49.0244l-0.116211 -0.640625l0.644531 -0.0830078l51.8564 -6.72656l0.573242 -0.0742188l0.113281 0.566406zM407.851 324.341
l-9.37988 -47.1562l-50.6377 6.56836l8.69824 47.7998zM406.469 325.784l-50.1865 7.05273l-15.7939 12.5801l49.917 -6.58789zM408.975 325.342l-17.9258 14.5576l-0.135742 0.109375l-0.172852 0.0234375l-52.2988 6.90234l-2.20996 0.291016l1.74316 -1.3877
l17.6689 -14.0732l0.132812 -0.105469l0.166992 -0.0234375l52.5557 -7.38574l2.20215 -0.30957zM322.257 344.8l15.5723 -12.6582l8.37402 -47.3486l-15.9932 13.4395zM320.761 346.214l8.26855 -48.4131l0.0380859 -0.223633l0.172852 -0.145508l17.4707 -14.6807
l1.30273 -1.09473l-0.296875 1.67578l-8.70996 49.252l-0.0400391 0.226562l-0.178711 0.145508l-17.0273 13.8418l-1.27637 1.03711zM462.638 356.945l-16.54 45.25l22.1689 -5.16309l16.5391 -45.249zM462.031 355.816l23.6074 -5.49707l1.11426 -0.258789
l-0.392578 1.07422l-17.0469 46.6357l-0.115234 0.314453l-0.325195 0.0761719l-23.6084 5.49805l-1.11426 0.258789l0.392578 -1.07324l17.0479 -46.6377l0.115234 -0.314453zM207.922 366.486l21.3418 -3.6377l16.9668 -46.0859l-21.7598 4.42578zM206.395 367.062
l17.0332 -46.623l0.119141 -0.325195l0.338867 -0.0683594l23.1846 -4.7168l1.08691 -0.220703l-0.382812 1.04004l-17.4736 47.4639l-0.123047 0.335938l-0.353516 0.0595703l-22.7451 3.87598l-1.0498 0.179688zM214.525 262.856l0.806641 -0.618164l0.177734 1.00098
l13.7939 77.5996l0.0664062 0.370117l-0.298828 0.229492l-17.7891 13.6299l-0.807617 0.618164l-0.177734 -1.00098l-13.793 -77.6006l-0.0664062 -0.371094l0.298828 -0.228516zM214.471 264.457l-16.6836 12.7812l13.5498 76.2295l16.6836 -12.7822zM59.5625 333.683
l-0.448242 -0.935547l1.03613 0.0498047l100.168 4.83496l0.368164 0.0175781l0.160156 0.332031l10.3809 21.623l0.449219 0.93457l-1.03711 -0.0498047l-100.169 -4.83398l-0.368164 -0.0175781l-0.160156 -0.332031zM61.127 334.082l9.77148 20.3564l98.7646 4.76562
l-9.77246 -20.3545zM129.401 371.396l-0.448242 -0.935547l1.03613 0.0507812l100.169 4.83301l0.368164 0.0185547l0.160156 0.332031l10.3799 21.623l0.448242 0.935547l-1.03613 -0.0498047l-100.169 -4.83398l-0.368164 -0.0185547l-0.160156 -0.332031z
M130.966 371.796l9.77148 20.3555l98.7646 4.76562l-9.77148 -20.3555zM424.671 320.492l-9.2832 59.2139l20.626 -8.25586l9.2959 -59.332zM423.882 319.478l21.9756 -8.91602l1.01172 -0.411133l-0.168945 1.08008l-9.51855 60.7588l-0.0546875 0.347656
l-0.327148 0.130859l-21.9619 8.79004l-1.00879 0.40332l0.167969 -1.07324l9.50684 -60.6328l0.0537109 -0.345703zM430.009 374.427l-15.5996 42.5332l22.3311 -1.8252l16.6025 -42.6504zM429.513 373.227l24.7148 -2.05664l0.986328 -0.0820312l-0.359375 0.922852
l-17.1025 43.9336l-0.139648 0.360352l-0.385742 0.03125l-23.6807 1.93555l-0.963867 0.0791016l0.333008 -0.908203l16.0684 -43.8125l0.135742 -0.370117zM25.8994 374.466l-16.6025 42.6533l22.3105 -1.82422l16.6016 -42.6523zM25.4141 373.265l23.6787 -1.93555
l0.985352 -0.0800781l-0.358398 0.920898l-17.1006 43.9346l-0.139648 0.360352l-0.385742 0.03125l-23.6807 1.93555l-0.985352 0.0810547l0.358398 -0.920898l17.1016 -43.9355l0.140625 -0.360352zM458.565 342.292l25.6436 33.501l9.52734 -23.5068l-25.6436 -33.5z
M457.286 342.155l10.0664 -24.8369l0.40625 -1.00293l0.658203 0.859375l26.5166 34.6406l0.214844 0.280273l-0.132812 0.328125l-10.0674 24.8369l-0.40625 1.00293l-0.658203 -0.859375l-26.5156 -34.6406l-0.214844 -0.28125zM422.637 372.117l0.681641 0.104492
l-0.176758 0.666016l-11.2334 42.1533l-0.142578 0.535156l-0.548828 -0.0830078l-56.8135 -8.68066l-0.681641 -0.104492l0.177734 -0.666016l11.2334 -42.1533l0.142578 -0.536133l0.547852 0.0839844zM421.769 373.236l-55.584 -8.49414l-10.9121 40.9521l55.583 8.49219
zM414.117 371.016l-2.1416 42.9414l19.5244 -7.64844l2.1416 -42.9404zM413.294 370.01l20.7871 -8.14258l0.890625 -0.348633l-0.0478516 0.955078l-2.20898 44.2959l-0.0195312 0.399414l-0.37207 0.145508l-20.7871 8.14258l-0.890625 0.349609l0.0478516 -0.956055
l2.20898 -44.2959l0.0195312 -0.399414zM434.905 362.873l-2.14258 42.9414l19.5254 -7.64746l2.14258 -42.9414zM434.082 361.867l20.7881 -8.14258l0.890625 -0.348633l-0.0478516 0.955078l-2.20996 44.2959l-0.0195312 0.399414l-0.37207 0.145508l-20.7881 8.14258
l-0.890625 0.349609l0.046875 -0.956055l2.21094 -44.2959l0.0195312 -0.399414zM441.971 341.736l-16.5391 45.249l22.1689 -5.16211l16.5391 -45.249zM441.365 340.607l23.6074 -5.49707l1.11328 -0.258789l-0.392578 1.07422l-17.0459 46.6357l-0.115234 0.314453
l-0.325195 0.0761719l-23.6084 5.49707l-1.11426 0.258789l0.392578 -1.07422l17.0469 -46.6357l0.115234 -0.314453zM66.3887 370.373l0.819336 -0.685547l0.186523 1.05273l8.62793 48.9082l0.0634766 0.357422l-0.28125 0.229492l-17.1963 14.0088l-0.808594 0.658203
l-0.19043 -1.02539l-8.95898 -48.25l-0.0654297 -0.354492l0.276367 -0.232422zM66.3623 372.008l-16.4297 13.749l8.70215 46.8701l16.1074 -13.1211zM102.812 321.67l-14.8477 45.7256l48.6094 15.9375l16.543 -45.627zM102.601 320.305l51.5039 16.4189
l0.612305 0.195312l-0.21875 0.604492l-16.9668 46.7949l-0.204102 0.563477l-0.569336 -0.186523l-49.7646 -16.3164l-0.585938 -0.192383l0.19043 -0.586914l15.2275 -46.8965l0.189453 -0.585938zM318.947 326.893l1.09766 -0.241211l-0.383789 1.05664l-16.96 46.5967
l-0.116211 0.319336l-0.332031 0.0732422l-45.8369 10.0469l-1.09766 0.241211l0.383789 -1.05664l16.9609 -46.5967l0.116211 -0.319336l0.332031 -0.0722656zM318.114 328.341l-44.4053 9.73438l-16.46 45.2207l44.4062 -9.73438zM242.166 283.135l-22.791 43.0654
l21.04 -2.02148l23.0928 -42.4062zM241.741 281.923l22.8066 -1.45605l1.11816 -0.0712891l-0.536133 0.984375l-23.7852 43.6787l-0.157227 0.288086l-0.327148 0.03125l-22.5098 2.16309l-1.14258 0.109375l0.537109 -1.01465l23.4893 -44.3848l0.162109 -0.306641z
M413.309 318.226l0.592773 0.196289l-0.202148 0.59082l-16.0312 46.959l-0.198242 0.580078l-0.582031 -0.192383l-50.9951 -16.877l-0.591797 -0.196289l0.201172 -0.59082l16.0312 -46.959l0.197266 -0.579102l0.582031 0.192383zM412.327 319.204l-49.8223 -16.4883
l-15.6309 45.7891l49.8213 16.4883zM398.588 276.006l0.789062 -0.604492l0.194336 0.974609l9.62109 48.3652l0.0732422 0.366211l-0.290039 0.234375l-17.9268 14.5576l-0.791992 0.642578l-0.204102 -1l-9.9541 -48.9229l-0.0771484 -0.37793l0.307617 -0.235352z
M398.552 277.593l-17.1641 13.1592l9.67383 47.5439l16.8447 -13.6787zM450.657 268.803l0.788086 -0.62207l0.201172 0.984375l9.9541 48.9219l0.0751953 0.374023l-0.298828 0.235352l-17.5049 13.8037l-0.788086 0.62207l-0.200195 -0.984375l-9.95312 -48.9229
l-0.0761719 -0.373047l0.298828 -0.235352zM450.635 270.396l-16.416 12.9463l9.67676 47.5654l16.417 -12.9463zM416.488 327.502l0.788086 -0.62207l0.200195 0.984375l9.9541 48.9229l0.0761719 0.373047l-0.298828 0.235352l-17.5039 13.8037l-0.788086 0.62207
l-0.200195 -0.984375l-9.9541 -48.9229l-0.0761719 -0.373047l0.298828 -0.235352zM416.465 329.095l-16.416 12.9463l9.67871 47.5654l16.416 -12.9463zM408.195 324.382l0.801758 -0.651367l0.195312 1.01562l9.5332 49.6768l0.0703125 0.369141l-0.294922 0.232422
l-17.5049 13.8027l-0.789062 0.62207l-0.200195 -0.984375l-9.9541 -48.9229l-0.0742188 -0.367188l0.291016 -0.235352zM408.172 325.994l-16.832 13.6689l9.67871 47.5713l16.4209 -12.9482zM423.05 373.229l-10.8633 40.7656l24.4326 -6.81543l10.8643 -40.7637z
M422.378 372.133l25.8154 -7.19922l1.04199 -0.290039l-0.27832 1.04492l-11.2334 42.1514l-0.0917969 0.34082l-0.339844 0.0957031l-25.8154 7.20117l-1.04199 0.290039l0.27832 -1.04492l11.2334 -42.1533l0.0908203 -0.34082zM397.551 366.302l-16.123 45.4385
l22.3564 -4.69922l15.5615 -45.584zM396.948 365.169l23.2051 -5.1582l1.0752 -0.239258l-0.356445 1.04199l-16.0312 46.9609l-0.113281 0.333008l-0.344727 0.0722656l-23.7793 4.99805l-1.07812 0.226562l0.368164 -1.03906l16.6064 -46.7998l0.114258 -0.322266z
M397.276 365.186l0.599609 0.198242l-0.210938 0.595703l-16.6055 46.7998l-0.202148 0.569336l-0.574219 -0.189453l-50.6074 -16.6797l-0.595703 -0.196289l0.204102 -0.592773l16.2188 -46.9971l0.199219 -0.577148l0.579102 0.192383zM396.288 366.161
l-49.8154 -16.4863l-15.8145 45.8262l49.4375 16.2949zM102.226 321.482l-2.34961 -0.749023l2.4248 -0.448242l25.3018 -4.67676l0.150391 -0.0283203l0.145508 0.0458984l49.5977 15.4531l2.13867 0.666016l-2.17773 0.525391l-23.3955 5.64355l-0.167969 0.0400391
l-0.165039 -0.0527344zM104.95 321.054l48.9893 15.6172l21.0508 -5.07812l-47.3135 -14.7412zM130.091 266.873l-22.7871 43.0566l21.9619 -2.31445l23.0879 -42.3975zM129.658 265.665l23.7354 -1.76465l1.13184 -0.0839844l-0.542969 0.996094l-23.7861 43.6797
l-0.155273 0.285156l-0.322266 0.0341797l-23.4395 2.46973l-1.1543 0.121094l0.542969 -1.02539l23.4902 -44.3848l0.15918 -0.301758zM129.972 267.099l-22.9082 43.2852l46.3379 21.9434l23.1973 -42.5967zM129.975 265.725l47.7471 23.1758l0.583008 0.283203
l-0.310547 0.569336l-23.7861 43.6787l-0.279297 0.512695l-0.52832 -0.25l-47.4502 -22.4697l-0.584961 -0.276367l0.302734 -0.571289l23.4902 -44.3848l0.279297 -0.52832zM387.184 296.862l1.04688 -0.185547l-0.356445 1.00098l-32.9414 92.6436l-0.112305 0.317383
l-0.328125 0.0771484l-24.4805 5.7793l-1.09082 0.257812l0.363281 -1.05957l32.25 -93.959l0.118164 -0.344727l0.358398 -0.0634766zM386.354 298.266l-23.7676 4.21484l-31.7676 92.5537l23.0625 -5.44434zM351.884 245.083l0.0966797 -1.01562l0.855469 0.555664
l82.4912 53.6123l0.310547 0.202148l-0.03125 0.369141l-1.92383 22.5068l-0.0878906 1.02832l-0.865234 -0.5625l-82.6982 -53.792l-0.314453 -0.205078l0.0351562 -0.37207zM353.018 246.217l-1.99805 20.9375l81.5186 53.0254l1.80371 -21.1094zM312.249 351.514
l0.920898 0.630859l-1.02344 0.446289l-91.752 39.9336l-0.313477 0.136719l-0.282227 -0.194336l-19.5654 -13.4131l-0.920898 -0.630859l1.02344 -0.446289l91.75 -39.9346l0.314453 -0.136719l0.282227 0.194336zM310.629 351.902l-18.3633 -12.5898l-90.4121 39.3525
l18.3623 12.5879zM394.146 347.711l1.10547 -0.262695l-0.379883 1.07129l-33.0088 93.1279l-0.113281 0.319336l-0.330078 0.0771484l-23.3281 5.40625l-1.10156 0.254883l0.379883 -1.06445l33.126 -93.0146l0.113281 -0.316406l0.326172 -0.078125zM393.326 349.177
l-21.7783 5.18066l-32.6348 91.6328l21.8965 -5.0752zM396.408 332.628l1.14941 -0.110352l-0.544922 1.01758l-45.6943 85.373l-0.15625 0.291992l-0.330078 0.0322266l-24.3467 2.33887l-1.14941 0.110352l0.544922 -1.01758l45.6943 -85.3721l0.15625 -0.291992
l0.330078 -0.03125zM395.378 333.97l-22.8691 2.19824l-44.9932 84.0615l22.8691 -2.19727zM424.651 387.259l0.606445 0.200195l-0.21875 0.599609l-17.0469 46.6377l-0.205078 0.5625l-0.568359 -0.1875l-50.167 -16.4922l-0.606445 -0.200195l0.219727 -0.599609
l17.0459 -46.6367l0.205078 -0.5625l0.568359 0.186523zM423.658 388.234l-48.9912 -16.1055l-16.6211 45.4746l48.9902 16.1064zM406.938 307.788l0.306641 0.776367l-0.832031 0.0664062l-82.3564 6.58301l-0.456055 0.0371094l-0.167969 -0.426758l-13.3584 -33.8984
l-0.306641 -0.776367l0.832031 -0.0664062l82.3555 -6.58203l0.457031 -0.0371094l0.167969 0.426758zM405.481 307.465l-12.8848 -32.6953l-81.0674 6.47949l12.8848 32.6963zM334.459 372.872l0.758789 0.84668l-1.12207 0.176758l-97.5977 15.4141l-0.334961 0.0537109
l-0.224609 -0.253906l-15.8789 -17.9248l-0.75 -0.845703l1.11719 -0.174805l97.5537 -15.2559l0.332031 -0.0517578l0.224609 0.25zM332.78 372.852l-14.9404 -16.6699l-96.1045 15.0293l14.9043 16.8242zM499.123 356.959l0.645508 0.957031l-1.15527 0.00683594
l-96.8301 0.564453l-0.332031 0.00195312l-0.18457 -0.274414l-13.6719 -20.2822l-0.645508 -0.957031l1.15527 -0.00683594l96.8301 -0.563477l0.332031 -0.00195312l0.18457 0.274414zM497.452 356.693l-12.8408 -19.0498l-95.3457 0.554688l12.8408 19.0508z
M161.226 377.504l21.3408 -3.6377l16.8379 -46.0586l-21.6289 4.39746zM159.698 378.08l17.0342 -46.624l0.119141 -0.325195l0.338867 -0.0693359l23.0518 -4.68652l1.08301 -0.219727l-0.379883 1.03809l-17.3398 47.4346l-0.124023 0.336914l-0.353516 0.0605469
l-22.7451 3.87598l-1.0498 0.179688z" />
    <glyph glyph-name="layout-grid02" unicode="&#xf1aa;" 
d="M2.76953 437.713v-0.198242h506.461v0.198242v0.198242h-506.461v-0.198242zM2.96777 441.867h-0.197266v-8.31836h0.197266h0.198242v8.31836h-0.198242zM509.032 441.867h-0.198242v-8.31836h0.198242h0.197266v8.31836h-0.197266zM10.6836 417.929v-0.197266h116.723
v0.197266v0.198242h-116.723v-0.198242zM10.8809 422.083h-0.197266v-8.31836h0.197266h0.198242v8.31836h-0.198242zM127.406 422.281h-0.198242v-8.30859h0.198242h0.197266v8.30859h-0.197266zM134.924 417.929v-0.197266h365.997v0.197266v0.198242h-365.997v-0.198242z
M135.122 422.083h-0.198242v-8.31836h0.198242h0.198242v8.31836h-0.198242zM501.119 422.083h-0.198242v-8.31836h0.198242h0.197266v8.31836h-0.197266zM10.6836 310.909v79.3438h33.6318v-79.3438h-33.6318zM52.2285 310.909v79.3438h33.6328v-79.3438h-33.6328z
M93.7744 310.909v79.3438h33.6318v-79.3438h-33.6318zM135.32 310.909v79.3438h33.6318v-79.3438h-33.6318zM176.865 310.909v79.3438h33.6328v-79.3438h-33.6328zM218.411 310.909v79.3438h33.6318v-79.3438h-33.6318zM259.957 310.909v79.3438h33.6318v-79.3438h-33.6318z
M301.502 310.909v79.3438h33.6328v-79.3438h-33.6328zM343.048 310.909v79.3438h33.6318v-79.3438h-33.6318zM384.594 310.909v79.3438h33.6318v-79.3438h-33.6318zM426.139 310.909v79.3438h33.6328v-79.3438h-33.6328zM467.685 310.909v79.3438h33.6318v-79.3438h-33.6318
zM44.3154 349.478v1.97852h0.395508v-1.97852h-0.395508zM501.316 349.478v1.97852h0.396484v-1.97852h-0.396484zM51.833 349.478v1.97852h0.395508v-1.97852h-0.395508zM508.835 349.478v1.97852h0.395508v-1.97852h-0.395508zM44.3154 350.269h7.91309v0.396484h-7.91309
v-0.396484zM501.316 350.269h7.91406v0.396484h-7.91406v-0.396484zM46.6895 353.039l1.58301 1.58203l1.58203 -1.58203l-1.58203 -1.58301zM503.69 353.039l1.58301 1.58203l1.58301 -1.58203l-1.58301 -1.58301zM41.1504 360.952
c0 0.791016 0 0.791016 0.791016 0.791016h12.2656c0.791016 0 0.791016 0 0.791016 -0.791016v-7.12207c0 -0.791016 0 -0.791016 -0.791016 -0.791016h-12.2656c-0.791016 0 -0.791016 0 -0.791016 0.791016v7.12207zM498.151 360.952
c0 0.791016 0 0.791016 0.791016 0.791016h12.2666c0.791016 0 0.791016 0 0.791016 -0.791016v-7.12207c0 -0.791016 0 -0.791016 -0.791016 -0.791016h-12.2666c-0.791016 0 -0.791016 0 -0.791016 0.791016v7.12207zM10.6836 390.628v1.97754h0.395508v-1.97754
h-0.395508zM43.9199 390.628v1.97754h0.395508v-1.97754h-0.395508zM10.6836 391.419h33.6318v0.395508h-33.6318v-0.395508zM26.1143 391.419l1.58301 1.58301l1.58203 -1.58301l-1.58203 -1.58301zM20.5752 394.979c0 0.791992 0 0.791992 0.791016 0.791992h12.2656
c0.791992 0 0.791992 0 0.791992 -0.791992v-7.12207c0 -0.791016 0 -0.791016 -0.791992 -0.791016h-12.2656c-0.791016 0 -0.791016 0 -0.791016 0.791016v7.12207zM9.8916 422.281h1.97852v0.395508h-1.97852v-0.395508zM3.56152 417.138v1.97852h0.395508v-1.97852
h-0.395508zM127.802 417.138v1.97852h0.396484v-1.97852h-0.396484zM9.8916 417.138v1.97852h0.395508v-1.97852h-0.395508zM134.133 417.138v1.97852h0.395508v-1.97852h-0.395508zM3.56152 417.929h6.72559v0.395508h-6.72559v-0.395508zM127.802 417.929h6.72656
v0.395508h-6.72656v-0.395508zM5.53906 420.698l1.58301 1.58301l1.58301 -1.58301l-1.58301 -1.58203zM129.78 420.698l1.58301 1.58301l1.58301 -1.58301l-1.58301 -1.58203zM0 428.612c0 0.791016 0 0.791016 0.791016 0.791016h12.2666
c0.791016 0 0.791016 0 0.791016 -0.791016v-7.12207c0 -0.791992 0 -0.791992 -0.791016 -0.791992h-12.2666c-0.791016 0 -0.791016 0 -0.791016 0.791992v7.12207zM124.241 428.612c0 0.791016 0 0.791016 0.791016 0.791016h12.2656
c0.791992 0 0.791992 0 0.791992 -0.791016v-7.12207c0 -0.791992 0 -0.791992 -0.791992 -0.791992h-12.2656c-0.791016 0 -0.791016 0 -0.791016 0.791992v7.12207z" />
    <glyph glyph-name="ic-alert" unicode="&#xf1c4;" 
d="M0 192.188v2.0498c-0.0117188 47.4678 -0.0488281 158.629 45.6396 204.829c48.4082 48.9561 117.801 48.9434 205.7 48.9316h8.94238c87.875 0.0244141 157.291 0.0244141 205.688 -48.9316c45.1641 -45.6875 45.6641 -154.885 45.6514 -203.219l0.378906 -0.37793
v-5.70996c0.0117188 -47.4678 0.0488281 -158.629 -45.6396 -204.816c-47.6035 -48.1514 -115.52 -48.9443 -201.32 -48.9443h-4.4043h-8.90527c-87.8877 0.0488281 -157.292 -0.0244141 -205.725 48.9443c-45.6885 46.1875 -45.957 157.482 -45.9443 204.951v3.80566z" />
    <glyph glyph-name="ic-local-hotel" unicode="&#xf18e;" 
d="M0 236.294v1.69629c-0.00976562 39.2842 -0.0400391 131.279 37.7705 169.514c40.0625 40.5156 97.4902 40.5049 170.234 40.4951h7.40137c72.7236 0.0205078 130.172 0.0205078 170.224 -40.4951c37.377 -37.8105 37.791 -128.181 37.7812 -168.181l0.3125 -0.313477
v-4.72461c0.0107422 -39.2842 0.0410156 -131.28 -37.7705 -169.504c-39.3955 -39.8496 -95.6025 -40.5059 -166.609 -40.5059h-3.64551h-7.37012c-72.7334 0.0410156 -130.172 -0.0195312 -170.255 40.5059c-37.8105 38.2236 -38.0322 130.331 -38.0225 169.614v3.15039z
M168.526 222.014c17.3184 0 31.2979 14.1953 31.2979 31.7793c0 17.585 -13.9795 31.7793 -31.2979 31.7793c-17.3174 0 -31.2979 -14.1943 -31.2979 -31.7793c0 -17.584 13.9805 -31.7793 31.2979 -31.7793zM293.718 285.572h-83.4609v-74.1514h-83.4609v95.3379h-20.8652
v-158.896h20.8652v31.7793h187.787v-31.7793h20.8652v95.3379c0 23.4102 -18.6748 42.3721 -41.7305 42.3721zM377.173 159.902c19.6143 0 35.5723 -16.416 35.5723 -36.5947v-74.3652c0 -0.991211 -0.114258 -1.9502 -0.342773 -2.87207
c-4.52539 -60.7852 -53.9951 -108.084 -113.543 -108.084c-30.7861 0 -59.626 12.4395 -81.2148 35.0332l-83.6416 86.0439c-6.7168 6.90918 -10.417 16.1006 -10.417 25.874s3.69629 18.9609 10.417 25.874c13.8691 14.2686 36.4375 14.2686 50.3066 0l12.7139 -13.0781
v137.121c0 20.1777 15.957 36.5938 35.5723 36.5938c19.6143 0 35.5723 -16.416 35.5723 -36.5938v-27.751c3.91992 1.53711 8.1748 2.37793 12.6182 2.37793c16.6025 0 30.5898 -11.7637 34.4912 -27.6133c4.21582 1.82031 8.84766 2.82324 13.7002 2.82324
c16.6104 0 30.5898 -11.7637 34.4951 -27.6133c4.21484 1.82031 8.84766 2.82422 13.7002 2.82422zM389.792 51.0215h-0.0244141v72.2822c0 7.15625 -5.6582 12.9814 -12.6182 12.9814c-6.95312 0 -12.6191 -5.8252 -12.6191 -12.9814v-12.3945
c0 -6.51758 -5.13184 -11.8047 -11.4746 -11.8047c-6.33496 0 -11.4746 5.2832 -11.4746 11.8047v12.3945v24.79c0 7.15625 -5.65527 12.9814 -12.6191 12.9814c-6.95215 0 -12.6191 -5.82129 -12.6191 -12.9814v-24.79c0 -6.5166 -5.13574 -11.8047 -11.4746 -11.8047
c-6.33496 0 -11.4746 5.2832 -11.4746 11.8047v24.79v24.79c0 7.15625 -5.6582 12.9814 -12.6191 12.9814c-6.95215 0 -12.6191 -5.82129 -12.6191 -12.9814v-49.5762c0 -6.5166 -5.13965 -11.8037 -11.4746 -11.8037s-11.4746 5.2832 -11.4746 11.8037v49.5762v61.9707
c0 7.15625 -5.6582 12.9814 -12.6182 12.9814c-6.95703 0 -12.6191 -5.82129 -12.6191 -12.9814v-165.621c0 -4.77344 -2.79199 -9.07715 -7.08594 -10.9062c-4.28711 -1.82422 -9.22168 -0.816406 -12.501 2.56055l-32.3086 33.2334
c-2.45801 2.52832 -5.69043 3.79395 -8.92285 3.79395s-6.46094 -1.26172 -8.92285 -3.79395c-2.38281 -2.45215 -3.69629 -5.71289 -3.69629 -9.17969s1.31348 -6.72754 3.69629 -9.17871l83.6816 -86.085c0.0273438 -0.0244141 0.0507812 -0.0527344 0.0742188 -0.0771484
c17.2432 -18.0576 40.2832 -28.0059 64.876 -28.0059c48.1084 0 87.9834 38.6621 90.7715 88.0186c0.03125 0.481445 0.0820312 0.947266 0.161133 1.4082z" />
  </font>
</defs>
</svg>
