<?xml version="1.0" encoding="UTF-8"?>
<svg width="20px" height="12px" viewBox="0 0 20 12" version="1.1" xmlns="http://www.w3.org/2000/svg" xmlns:xlink="http://www.w3.org/1999/xlink">
    <!-- Generator: Sketch 53.2 (72643) - https://sketchapp.com -->
    <title>Eye</title>
    <desc>Created with Sketch.</desc>
    <g id="Page-1" stroke="none" stroke-width="1" fill="none" fill-rule="evenodd">
        <g id="Desktop-1280x900-Copy-4" transform="translate(-732.000000, -395.000000)" fill="#00EEAA" fill-rule="nonzero">
            <g id="Eye-active" transform="translate(732.000000, 395.000000)">
                <path d="M1.42969309,7.06064614 L1.42969309,7.06064614 L1.42639677,4.93851309 C1.45336425,4.97068104 1.51661554,5.04370949 1.61353579,5.1516538 C1.78161641,5.33885251 1.9783293,5.54935044 2.20097271,5.77717495 C2.83966666,6.43073188 3.55159267,7.08483625 4.31288228,7.69138934 C6.34201944,9.30809261 8.3185442,10.2629596 9.96967935,10.2853136 C9.99924151,10.2856475 9.99924151,10.2856475 10.0287004,10.2857143 C11.6882824,10.2857143 13.6741714,9.33054095 15.7105833,7.69557615 C16.4652339,7.08969322 17.1701828,6.43625427 17.8019733,5.78336841 C18.022198,5.55579047 18.2166722,5.34553512 18.3827481,5.15857652 C18.4784563,5.05083391 18.5408392,4.97800333 18.567337,4.94603066 L18.5700715,7.06036358 C18.5433427,7.02827374 18.4805367,6.95530369 18.38424,6.84740182 C18.2171937,6.66022383 18.0216364,6.44973603 17.8002419,6.221915 C17.1651168,5.56835363 16.4567979,4.91424321 15.6989415,4.30771408 C13.6536665,2.67083553 11.6615415,1.71428571 10.0010787,1.71428571 C9.99996046,1.71428581 9.99996046,1.71428581 9.9988421,1.71428629 C8.33870201,1.71514552 6.34693459,2.67168845 4.30194045,4.3078715 C3.54383455,4.91442581 2.83525347,5.56856124 2.19986887,6.22214782 C1.97838351,6.44997811 1.78274207,6.66047503 1.61562038,6.84766204 C1.51927817,6.95557148 1.45643959,7.02854896 1.42969309,7.06064614 L1.42969309,7.06064614 Z M0,6.00155153 C0,6.00155153 5.00107868,0 10.0010787,0 C15.0010787,0 20,6.00155153 20,6.00155153 C20,6.00155153 15.0287004,12 10.0287004,12 C5.02870044,12 0,6.00155153 0,6.00155153 L0,6.00155153 Z M10,8.57142857 C11.5062311,8.57142857 12.7272727,7.42016079 12.7272727,6 C12.7272727,4.57983921 11.5062311,3.42857143 10,3.42857143 C8.49376886,3.42857143 7.27272727,4.57983921 7.27272727,6 C7.27272727,7.42016079 8.49376886,8.57142857 10,8.57142857 Z" id="Shape"></path>
            </g>
        </g>
    </g>
</svg>
