<?xml version="1.0" encoding="UTF-8"?>
<svg width="11px" height="14px" viewBox="0 0 11 14" version="1.1" xmlns="http://www.w3.org/2000/svg" xmlns:xlink="http://www.w3.org/1999/xlink">
    <!-- Generator: Sketch 53.2 (72643) - https://sketchapp.com -->
    <title>Group 11</title>
    <desc>Created with Sketch.</desc>
    <g id="Page-1" stroke="none" stroke-width="1" fill="none" fill-rule="evenodd">
        <g id="Desktop-1280x900-Copy" transform="translate(-529.000000, -393.000000)" fill="#00E6A5" stroke="#00E7A3">
            <g id="formulario" transform="translate(528.000000, 293.000000)">
                <g id="Group-11" transform="translate(2.000000, 101.000000)">
                    <path d="M0.727744069,6.3198941 L0.727744069,6.32257346 L0.725424196,9.82067548 C0.725424196,11.1866156 0.725424196,11.1866156 2.14410369,11.1866156 L6.76985254,11.1866156 C8.1861456,11.1866156 8.1861456,11.1866156 8.20314723,9.81600573 L8.20314723,6.05264661 C8.18611887,4.68640026 8.20314723,4.68640026 6.76985254,4.68640026 L2.14410369,4.68640026 C0.727744069,4.68640026 0.725537542,4.68640026 0.725424196,6.05241695 C0.725424196,6.05295282 0.726429475,6.13111372 0.727744069,6.3198941 Z M2.14410369,11.9047619 C0.00231987271,11.9047619 -3.99680289e-14,11.9047619 -3.99680289e-14,9.82044582 L0.00231987271,6.323339 C0.00100527817,6.13371653 7.73290903e-05,6.05800534 -3.99680289e-14,6.05716325 C-3.99680289e-14,4 0.00231987271,3.96825397 2.14410369,3.96825397 L6.76985254,3.96825397 C8.90266831,3.96825397 8.90266831,3.96825397 8.92857143,6.04820652 L8.92857143,9.82044582 C8.90269961,11.9047619 8.91186835,11.9047619 6.76985254,11.9047619 L2.14410369,11.9047619 Z" id="Fill-1" stroke-width="0.75" fill-rule="nonzero"></path>
                    <path d="M1.2755102,3.6834801 L1.2755102,2.22062895 C1.2755102,-1.9095836e-14 2.67842215,-1.9095836e-14 4.40292838,-1.9095836e-14 L4.52572331,-1.9095836e-14 C6.25014928,-1.9095836e-14 7.65306122,-1.9095836e-14 7.65306122,2.22062895 L7.65306122,3.67194342 C7.65306122,4.42910084 7.48459943,3.95677801 7.27665064,3.95677801 C7.06870185,3.95677801 6.90024006,4.44826029 6.90024006,3.67194342 L6.90024006,2.22062895 C6.90024006,0.569547728 5.83497402,0.569547728 4.52572331,0.569547728 L4.40292838,0.569547728 C3.09359741,0.569547728 2.02833137,0.569547728 2.02833137,2.22062895 L2.02833137,3.6834801 C2.02833137,4.39477348 1.85986958,3.96825397 1.65192079,3.96825397 C1.443972,3.96825397 1.2755102,4.87948106 1.2755102,3.6834801 Z" id="Fill-4" stroke-width="0.75"></path>
                    <path d="M4.45895472,7.50470834 C4.14006572,7.50470834 4.04280549,7.6055708 4.04280549,7.93674537 C4.04280549,8.26744507 4.14006572,8.36830753 4.45895472,8.36830753 C4.77821005,8.36830753 4.87556186,8.26744507 4.87556186,7.93674537 C4.87556186,7.6055708 4.77821005,7.50470834 4.45895472,7.50470834 M4.45895472,9.25925926 C3.66045007,9.25925926 3.18367347,8.76482426 3.18367347,7.93674537 C3.18367347,7.10828658 3.66045007,6.61375661 4.45895472,6.61375661 C5.24582843,6.61375661 5.73469388,7.12072819 5.73469388,7.93674537 C5.73469388,8.76482426 5.25782569,9.25925926 4.45895472,9.25925926" id="Fill-7" stroke-width="0.5" fill-rule="nonzero"></path>
                </g>
            </g>
        </g>
    </g>
</svg>
