<?xml version="1.0" encoding="UTF-8"?>
<svg width="71px" height="18px" viewBox="0 0 71 18" version="1.1" xmlns="http://www.w3.org/2000/svg" xmlns:xlink="http://www.w3.org/1999/xlink">
    <!-- Generator: Sketch 53.2 (72643) - https://sketchapp.com -->
    <title>Shape</title>
    <desc>Created with Sketch.</desc>
    <g id="Page-1" stroke="none" stroke-width="1" fill="none" fill-rule="evenodd">
        <g id="Desktop-1280x900-Copy-5" transform="translate(-372.000000, -791.000000)" fill="#1D1D1B" fill-rule="nonzero">
            <g id="logo-endoso" transform="translate(372.000000, 791.000000)">
                <g id="Shape">
                    <path d="M4.54479623,17.9901586 C4.07006206,17.9948821 3.61277641,17.8179112 3.27330135,17.4980864 L0.510736175,14.8359759 C0.178842756,14.5088452 -0.00480610002,14.0681877 9.56622738e-05,13.6107162 L9.56622738e-05,0.492072171 C9.56622738e-05,0.220308215 0.228717207,4.99222288e-17 0.510736175,0 L4.18734787,0 C4.46936683,1.66407429e-17 4.69798838,0.220308215 4.69798838,0.492072171 L4.69798838,13.0251504 C4.68566897,13.1877169 4.7473371,13.3474081 4.86694439,13.4626661 C4.98655168,13.5779241 5.15226877,13.6373498 5.3209698,13.6254784 L11.9950413,13.6254784 C12.2770603,13.6254784 12.5056818,13.8457866 12.5056818,14.1175506 L12.5056818,17.5079278 C12.5056818,17.7796918 12.2770603,18 11.9950413,18 L4.54479623,17.9901586 Z"></path>
                    <path d="M27.8485909,17.9999078 C28.3128077,18.0046338 28.7599625,17.8275671 29.0919167,17.5075689 L31.7733061,14.858786 C32.0978467,14.5314779 32.2774269,14.0905817 32.2726337,13.6328623 L32.2726337,0.492338834 C32.2726337,0.220427604 32.0490771,1.66497609e-17 31.7733061,0 L28.1781471,0 C27.9023761,-1.66497609e-17 27.6788195,0.220427604 27.6788195,0.492338834 L27.6788195,13.0322089 C27.690866,13.1948636 27.6305641,13.3546413 27.5136066,13.4699618 C27.3966491,13.5852823 27.2346034,13.6447402 27.0696398,13.6328623 L22.1662424,13.6328623 C21.997983,13.6509122 21.8303036,13.5941985 21.7087097,13.4781126 C21.5871157,13.3620266 21.5242193,13.1986091 21.5370896,13.0322089 L21.5370896,0.492338834 C21.5370896,0.220427604 21.313533,1.66497609e-17 21.037762,0 L17.442603,0 C17.166832,-1.66497609e-17 16.9432754,0.220427604 16.9432754,0.492338834 L16.9432754,13.6180921 C16.9384822,14.0758115 17.1180624,14.5167078 17.442603,14.8440158 L20.1239924,17.4927988 C20.4559466,17.8127969 20.9031014,17.9898637 21.3673182,17.9851376 L27.8485909,17.9999078 Z"></path>
                    <path d="M37.1137313,13.6342257 C37.1088682,14.0923186 37.2910675,14.5335747 37.6203414,14.8611498 L40.3459037,17.5071671 C40.6826993,17.8274264 41.1363756,18.0046376 41.6073628,17.9999077 L50.7263445,17.9999077 C51.0061375,17.9999077 51.2329545,17.7793002 51.2329545,17.5071671 L51.2329545,14.1318937 C51.2329545,13.8597606 51.0061375,13.6391531 50.7263445,13.6391531 L42.3824762,13.6391531 C42.2118827,13.6585925 42.0412447,13.6031706 41.9168898,13.4879344 C41.7925349,13.3726982 41.7273679,13.209606 41.7390814,13.0429369 L41.7390814,4.99155494 C41.7268592,4.82876751 41.7880406,4.66885943 41.9067039,4.55344483 C42.0253671,4.43803023 42.1897762,4.3785238 42.3571457,4.39041136 L50.7263445,4.39041136 C51.0061375,4.39041136 51.2329545,4.16980387 51.2329545,3.89767073 L51.2329545,0.492832944 C51.2329545,0.220699805 51.0061375,9.23089506e-05 50.7263445,9.23089506e-05 L41.6073628,9.23089506e-05 C41.1363756,-0.00463762807 40.6826993,0.172573642 40.3459037,0.492832944 L37.6406058,3.15855978 C37.3113319,3.48613495 37.1291326,3.92739102 37.1339957,4.38548396 L37.1137313,13.6342257 Z"></path>
                    <path d="M70.4559068,3.14637761 L67.7753742,0.493240539 C67.443526,0.172716369 66.9965141,-0.0046414636 66.5324456,9.23852944e-05 L60.0931773,9.23852944e-05 C59.6291089,-0.0046414636 59.1820969,0.172716369 58.8502488,0.493240539 L56.1697161,3.14637761 C55.8452793,3.4742237 55.6657564,3.9158447 55.6705481,4.37431651 L55.6705481,17.5068518 C55.6705481,17.7792101 55.8940332,18 56.1697161,18 L59.7637264,18 C60.0394093,18 60.2628945,17.7792101 60.2628945,17.5068518 L60.2628945,12.3386592 C60.2508518,12.1757371 60.3111345,12.0156968 60.4280546,11.9001867 C60.5449747,11.7846767 60.7069686,11.725121 60.8718795,11.7370184 L65.7986685,11.7370184 C65.9635794,11.725121 66.1255734,11.7846767 66.2424935,11.9001867 C66.3594136,12.0156968 66.4196962,12.1757371 66.4076536,12.3386592 L66.4076536,17.5068518 C66.4076536,17.7792101 66.6311388,18 66.9068217,18 L70.5008319,18 C70.7765148,18 71,17.7792101 71,17.5068518 L71,4.37431651 C70.9929262,3.90942274 70.7968406,3.46688634 70.4559068,3.14637761 Z M66.3876869,7.91512025 C66.3997295,8.07804231 66.3394469,8.23808265 66.2225268,8.3535927 C66.1056067,8.46910275 65.9436127,8.5286584 65.7787018,8.516761 L60.8519128,8.516761 C60.6870019,8.5286584 60.525008,8.46910275 60.4080879,8.3535927 C60.2911678,8.23808265 60.2308851,8.07804231 60.2429277,7.91512025 L60.2429277,4.95623133 C60.2308851,4.79330927 60.2911678,4.63326894 60.4080879,4.51775889 C60.525008,4.40224883 60.6870019,4.34269319 60.8519128,4.35459058 L65.7787018,4.35459058 C65.9436127,4.34269319 66.1056067,4.40224883 66.2225268,4.51775889 C66.3394469,4.63326894 66.3997295,4.79330927 66.3876869,4.95623133 L66.3876869,7.91512025 Z"></path>
                </g>
            </g>
        </g>
    </g>
</svg>
