
<svg width="15px" height="11px" viewBox="0 0 15 11" version="1.1" xmlns="http://www.w3.org/2000/svg" xmlns:xlink="http://www.w3.org/1999/xlink">
    <defs>
        <polygon id="path-1" points="0.00142105263 0.737318841 0.400736842 1.33466667 3.39694737 6.71095652 8.79015789 7.00811594 13.7679474 0.936594203 12.9847895 0.339086957 0.800210526 0.140130435"></polygon>
    </defs>
    <g id="Symbols" stroke="none" stroke-width="1" fill="none" fill-rule="evenodd">
        <g id="Field/empty/mail" transform="translate(0.000000, -30.000000)">
            <g id="Group-6" transform="translate(0.000000, 30.000000)">
                <path d="M2.20127368,0.996026087 C1.54474737,0.996026087 1.01058947,1.53534493 1.01058947,2.19821449 L1.01058947,8.93818551 C1.01058947,9.56375072 1.51458947,10.0727797 2.13416842,10.0727797 L12.7971158,10.0727797 C13.5275368,10.0727797 14.1220105,9.47256232 14.1220105,8.73508406 L14.1220105,2.19821449 C14.1220105,1.53534493 13.5878526,0.996026087 12.9313263,0.996026087 L2.20127368,0.996026087 Z M12.7971158,10.9519826 L2.13416842,10.9519826 C1.03443158,10.9519826 0.1398,10.0487072 0.1398,8.93818551 L0.1398,2.19821449 C0.1398,1.05038841 1.06458947,0.116663768 2.20127368,0.116663768 L12.9313263,0.116663768 C14.0680105,0.116663768 14.9928,1.05038841 14.9928,2.19821449 L14.9928,8.73508406 C14.9928,9.95751884 14.0078526,10.9519826 12.7971158,10.9519826 L12.7971158,10.9519826 Z" id="Fill-1" fill="#00EEAA"></path>
                <g id="Group-5" transform="translate(0.789474, 0.430275)">
                    <mask id="mask-2" fill="white">
                        <use xlink:href="#path-1"></use>
                    </mask>
                    <g id="Clip-4"></g>
                    <path d="M3.77829474,-10.0740072 C3.46266316,-10.0740072 3.14750526,-9.95141304 2.91161053,-9.7075 L-2.28912632,-4.3300942 C-2.49675789,-4.11535507 -2.60807368,-3.8319058 -2.60270526,-3.53139855 C-2.59717895,-3.2308913 -2.47544211,-2.95126812 -2.25991579,-2.74418116 L6.11813684,5.30781884 C6.64945263,5.81860145 7.49876842,5.8032971 8.01129474,5.27354348 L13.0715053,0.0413695652 C13.2916105,-0.186282609 13.4095579,-0.486949275 13.4037158,-0.805152174 C13.3980316,-1.12383333 13.2690316,-1.42019565 13.0405579,-1.63971739 L4.61387368,-9.73842754 C4.38066316,-9.96257246 4.0794,-10.0740072 3.77829474,-10.0740072 L3.77829474,-10.0740072 Z M7.04703158,6.5591087 C6.49597895,6.5591087 5.94476842,6.35505072 5.51782105,5.9447029 L-2.86038947,-2.1072971 C-3.24596842,-2.47778986 -3.46354737,-2.9778913 -3.47333684,-3.51545652 C-3.48296842,-4.0527029 -3.28370526,-4.56013768 -2.91217895,-4.94434058 L2.28855789,-10.3219058 C3.08055789,-11.1406884 4.39297895,-11.1646014 5.21434737,-10.3753116 L13.6410316,-2.27660145 C14.0394,-1.89367391 14.2644,-1.37683333 14.2745053,-0.821413043 C14.2846105,-0.265992754 14.0785579,0.2585 13.6945579,0.655615942 L8.63434737,5.88778986 C8.20234737,6.33432609 7.62492632,6.5591087 7.04703158,6.5591087 L7.04703158,6.5591087 Z" id="Fill-3" fill="#00EEAA" mask="url(#mask-2)"></path>
                </g>
            </g>
        </g>
    </g>
</svg>
