<?xml version="1.0" encoding="UTF-8"?>
<svg width="81px" height="81px" viewBox="0 0 81 81" version="1.1" xmlns="http://www.w3.org/2000/svg" xmlns:xlink="http://www.w3.org/1999/xlink">
    <!-- Generator: Sketch 53.2 (72643) - https://sketchapp.com -->
    <title>Group 6</title>
    <desc>Created with Sketch.</desc>
    <defs>
        <polygon id="path-1" points="0 0.404347826 80.5632545 0.404347826 80.5632545 80.2166348 0 80.2166348"></polygon>
    </defs>
    <g id="Page-1" stroke="none" stroke-width="1" fill="none" fill-rule="evenodd">
        <g id="Desktop-1280x900-Copy-16" transform="translate(-599.000000, -469.000000)">
            <g id="Group-6" transform="translate(599.000000, 469.000000)">
                <g id="Group-3" transform="translate(0.000000, 0.378261)">
                    <mask id="mask-2" fill="white">
                        <use xlink:href="#path-1"></use>
                    </mask>
                    <g id="Clip-2"></g>
                    <path d="M40.2814364,4.79141739 C16.4941636,4.79141739 4.46689091,16.7444609 4.46689091,40.310113 C4.46689091,63.8757652 16.5323455,75.7909826 40.2814364,75.7909826 C64.0687091,75.7909826 76.1341636,63.8379391 76.1341636,40.310113 C76.1341636,16.7444609 64.0687091,4.79141739 40.2814364,4.79141739 M40.2814364,80.2166348 C27.4905273,80.2166348 17.5250727,76.9257652 10.6905273,70.3818522 C3.58870909,63.6109826 -0.000381818183,53.4735913 -0.000381818183,40.310113 C-0.000381818183,27.1466348 3.58870909,17.0092435 10.6905273,10.2383739 C17.5250727,3.69446087 27.4905273,0.403591304 40.2814364,0.403591304 C53.0723455,0.403591304 63.0378,3.73228696 69.8723455,10.2383739 C76.9741636,17.0092435 80.5632545,27.1466348 80.5632545,40.310113 C80.5632545,53.4735913 76.9741636,63.6109826 69.8723455,70.3818522 C63.0378,76.8879391 53.0723455,80.2166348 40.2814364,80.2166348" id="Fill-1" fill="#00EEAA" mask="url(#mask-2)"></path>
                </g>
                <path d="M34.4403818,58.2778826 C33.7912909,58.2778826 33.1803818,57.9752739 32.7985636,57.4835348 L21.9931091,44.0174478 C21.2676545,43.1096217 21.4203818,41.7857087 22.3367455,41.067013 C23.2531091,40.3483174 24.5894727,40.4996217 25.3149273,41.4074478 L34.4403818,52.7552739 L56.4331091,23.5535348 C57.1203818,22.6457087 58.4567455,22.4565783 59.3731091,23.1374478 C60.2894727,23.8183174 60.4803818,25.1422304 59.7931091,26.0500565 L36.1585636,57.4078826 C35.7385636,57.9752739 35.0894727,58.2778826 34.4403818,58.2778826" id="Fill-4" fill="#00EEAA"></path>
            </g>
        </g>
    </g>
</svg>
