
<svg width="170px" height="30px" viewBox="0 0 200 30" version="1.1" xmlns="http://www.w3.org/2000/svg" xmlns:xlink="http://www.w3.org/1999/xlink">
    <g id="Screens" stroke="none" stroke-width="1" fill="none" fill-rule="evenodd">
        <g id="HOME-1" transform="translate(-1193.000000, -3441.000000)" fill="#FFFFFF">
            <g id="LOGOS" transform="translate(47.000000, 3441.000000)">
                <g id="Telefonica-data-Unit" transform="translate(1146.000000, 0.222222)">
                    <g id="Fill-1">
                        <path d="M192.746353,8.33397647 L188.992941,8.33397647 L189.346824,6.33585882 L199.755294,6.33585882 L199.175059,8.33397647 L195.517647,8.33397647 L193.745412,18.4520941 L190.974118,18.4520941 L192.746353,8.33397647 Z M184.593882,6.33585882 L187.365176,6.33585882 L185.238118,18.4520941 L182.483294,18.4520941 L184.593882,6.33585882 Z M171.429647,6.33585882 L173.426824,6.33585882 L177.809882,14.2633882 L179.211294,6.33585882 L181.644235,6.33585882 L179.501176,18.4520941 L177.326118,18.4520941 L173.056471,10.9113882 L171.735529,18.4520941 L169.302588,18.4520941 L171.429647,6.33585882 Z M158.570824,17.6619765 C157.700235,16.9212706 157.378353,15.9702118 157.378353,14.6977412 C157.378353,14.1339765 157.442824,13.5537412 157.588235,12.7485647 L158.731765,6.33585882 L161.439059,6.33585882 L160.182588,13.4572706 C160.069647,14.1339765 160.052706,14.4718588 160.052706,14.6652706 C160.052706,15.0845647 160.134118,15.5688 160.423059,15.9391529 C160.761882,16.3730353 161.325647,16.5833882 162.083294,16.5833882 C163.049882,16.5833882 163.646118,16.2455059 164.000471,15.8422118 C164.387294,15.4064471 164.644706,14.7782118 164.854118,13.6342118 L166.143059,6.33585882 L168.624471,6.33585882 L167.190588,14.4568 C166.916706,16.0026824 166.320941,16.9537412 165.563294,17.5819765 C164.580706,18.4045647 163.356235,18.6930353 161.970353,18.6930353 C160.520471,18.6930353 159.408471,18.3720941 158.570824,17.6619765 L158.570824,17.6619765 Z M147.484235,13.4092706 L146.888941,9.18809412 L146.856471,9.18809412 L144.858353,13.4092706 L147.484235,13.4092706 Z M145.825412,6.33585882 L148.870588,6.33585882 L151.125647,18.4520941 L148.290353,18.4520941 L147.806588,15.4064471 L143.875294,15.4064471 L142.408941,18.4520941 L139.638588,18.4520941 L145.825412,6.33585882 Z M134.869176,8.33397647 L131.114824,8.33397647 L131.469176,6.33585882 L141.877176,6.33585882 L141.296941,8.33397647 L137.639529,8.33397647 L135.867765,18.4520941 L133.096,18.4520941 L134.869176,8.33397647 Z M125.763765,13.4092706 L125.168,9.18809412 L125.136,9.18809412 L123.137882,13.4092706 L125.763765,13.4092706 Z M124.104941,6.33585882 L127.149647,6.33585882 L129.404706,18.4520941 L126.569882,18.4520941 L126.086118,15.4064471 L122.154824,15.4064471 L120.688471,18.4520941 L117.917647,18.4520941 L124.104941,6.33585882 Z M110.972235,16.4375059 C112.470588,16.4375059 113.470118,16.0666824 114.243294,14.9391529 C114.887529,14.0210353 115.354353,12.6191529 115.354353,11.1208 C115.354353,10.1866824 115.177412,9.54197647 114.775059,9.07515294 C114.356235,8.59138824 113.679059,8.35044706 112.583059,8.35044706 L111.455529,8.35044706 L110.053647,16.4375059 L110.972235,16.4375059 Z M109.055059,6.33585882 L112.648,6.33585882 C114.452706,6.33585882 116.144,6.64221176 117.159529,7.70621176 C117.948706,8.54385882 118.222588,9.68785882 118.222588,11.0732706 C118.222588,13.2163294 117.561882,15.2779765 116.224941,16.6473882 C114.887529,18.0008 113.131294,18.4520941 110.682353,18.4520941 L106.928471,18.4520941 L109.055059,6.33585882 Z M42.736,7.36738824 C43.1256471,7.36738824 43.2851765,7.64032941 43.2851765,7.97868235 C43.2705882,9.59656471 41.2927059,11.6638588 38.7237647,13.1711529 C39.3722353,10.6713882 41.1665882,7.34762353 42.736,7.36738824 L42.736,7.36738824 Z M35.2423529,15.7815059 C35.2235294,17.4506824 36.1091765,18.8492706 38.3642353,18.7697412 C40.784,18.7015059 42.9891765,17.3024471 44.8936471,15.3005647 C44.4136471,16.5890353 44.0056471,17.6920941 43.7567059,18.2892706 C43.0489412,20.0520941 42.5312941,21.4855059 41.4423529,22.3128 L41.56,22.5259765 C44.7534118,22.7104471 45.9463529,20.4704471 47.2588235,16.8135059 C48.5722353,13.1542118 49.6823529,9.96927059 50.5496471,7.76268235 C51.9444706,7.76268235 53.9251765,7.81115294 55.0310588,7.5608 C52.1407059,8.84315294 49.6823529,13.4553882 49.9698824,16.4949176 C50.1021176,17.8455059 50.904,18.7697412 52.6174118,18.7697412 C55.9350588,18.7697412 58.7247059,14.8431529 59.7924706,12.2525647 C60.4028235,10.7683294 60.8094118,9.50291765 60.8705882,8.22903529 C61.6621176,8.08974118 62.4188235,7.95327059 62.7952941,7.89632941 C63.5214118,7.79938824 63.3811765,8.60127059 63.152,9.20691765 C61.7952941,12.9975059 59.4456471,18.4996235 59.4357647,18.5824471 L62.0277647,18.5824471 C63.152,16.2478588 63.8489412,14.7490353 64.7402353,13.1622118 C65.8192941,11.2883294 68.232,8.20644706 69.1901176,8.20032941 C69.5298824,8.20032941 69.6207059,8.4168 69.5327059,8.74621176 C69.3661176,10.0149176 66.2616471,14.8713882 66.3138824,17.2685647 C66.3449412,18.8408 67.1727059,19.7876235 68.6084706,20.1457412 L68.9101176,19.9782118 C68.7312941,19.6313882 68.7054118,19.2045647 68.7054118,18.7015059 C68.6771765,17.1033882 69.9807059,14.3029176 70.4814118,13.2163294 C71.2814118,11.5104471 72.7091765,9.0168 72.6183529,7.64644706 C72.5694118,6.97774118 72.0701176,6.38338824 70.9218824,6.37491765 C68.8108235,6.36362353 66.7077647,8.4168 64.9407059,11.1664471 L64.8936471,11.1575059 C65.6014118,9.55938824 66.1548235,8.07232941 66.1364706,7.34762353 C66.1204706,6.68503529 65.7454118,6.42338824 64.9534118,6.42338824 C64.4004706,6.44315294 63.6385882,6.6568 62.8908235,6.85256471 C61.8442353,7.12268235 60.7496471,7.40738824 59.5435294,7.66338824 C58.8,7.76268235 58.5425882,7.89632941 58.5670588,8.16362353 C58.7190588,12.3692706 55.8555294,17.3142118 53.9491765,17.3283294 C53.1289412,17.3283294 52.944,16.7306824 52.944,15.9033882 C52.9355294,12.9975059 55.3242353,8.11232941 57.664,7.33632941 C57.8630588,7.27656471 58.0625882,7.23656471 58.1957647,7.19421176 L58.4945882,6.40644706 C57.9981176,6.51138824 56.8211765,6.53115294 56.1985882,6.54574118 L51.0729412,6.54574118 C52.4291765,3.32127059 54.3256471,1.22574118 57.1110588,1.10338824 C58.8385882,1.04644706 60.0047059,1.70056471 60.104,2.68974118 C60.1764706,3.53162353 59.9416471,4.2168 59.2677647,4.91327059 L59.4588235,5.10432941 C60.984,4.3848 62.0343529,3.16221176 62.0461176,2.32597647 C62.0658824,1.03232941 60.5044706,0.236094118 58.0136471,0.258682353 C54.8508235,0.281741176 50.9496471,0.995152941 48.2296471,6.64221176 C47.4150588,6.76174118 46.6743529,7.07138824 46.0597647,7.73162353 L46.1694118,7.97868235 C46.616,7.81962353 47.1449412,7.79938824 47.7308235,7.79938824 C47.3538824,8.7208 46.6,10.7344471 45.8409412,12.7984471 C43.5491765,15.8266824 41.2432941,17.2685647 39.5571765,17.2685647 C38.6329412,17.2996235 38.2602353,16.7848 38.256,15.9033882 C38.2432941,15.3462118 38.3797647,14.5725647 38.4950588,14.1631529 C40.2950588,13.2563294 42.1101176,12.2412706 43.7510588,10.5579765 C44.648,9.57962353 45.2738824,8.60456471 45.3007059,7.59232941 C45.312,6.64221176 44.728,6.15044706 43.5232941,6.13632941 C41.8089412,6.11327059 39.7444706,7.29068235 38.3938824,8.7208 C36.6338824,10.6431529 35.2672941,13.3640941 35.2423529,15.7815059 L35.2423529,15.7815059 Z M10.5232941,8.86856471 L10.6945882,8.7208 C10.4569412,8.3368 10.3703529,7.64644706 10.3802353,7.23656471 C10.4710588,3.81585882 14.0795294,1.87656471 19.7251765,1.87656471 L22.8461176,1.87656471 C21.0305882,2.93727059 19.5072941,4.33632941 18.3407059,6.97774118 C17.84,8.11232941 15.4484706,14.2262118 14.4734118,16.9697412 C13.2635294,20.2398588 12.4842353,21.7245647 11.5242353,22.2671529 L11.6894118,22.5603294 C14.3924706,22.7306824 16.0075294,21.3490353 17.0451765,18.7923294 C18.0343529,16.3838588 19.3444706,12.5368 19.984,10.8309176 C22.064,5.3288 22.9736471,3.01962353 24.6334118,1.87656471 C26.9421176,1.86527059 29.168,1.86527059 29.168,1.86527059 C31.6508235,1.79703529 32.7101176,1.18009412 33.4861176,0.216329412 L33.3110588,-0.000141176471 C32.6912941,0.335388235 31.3425882,0.397976471 30.2051765,0.403623529 L18.9887059,0.403623529 C12.6847059,0.403623529 8.81741176,2.47656471 8.18917647,5.56174118 C7.87905882,7.05162353 8.70964706,8.66715294 10.5232941,8.86856471 L10.5232941,8.86856471 Z M93.7985882,7.76550588 C94.5538824,7.41303529 95.1854118,7.3928 95.7143529,7.49821176 C95.5167059,7.91609412 94.6065882,9.75327059 93.8955294,11.4022118 C92.7755294,13.9899765 91.0931765,16.6003294 89.5322353,16.9725647 C88.9962353,17.1292706 88.6781176,16.8958588 88.6865882,16.3612706 C88.7336471,14.0695059 91.2527059,8.95985882 93.7985882,7.76550588 L93.7985882,7.76550588 Z M71.6498824,17.0069176 C71.6498824,18.1499765 72.3792941,18.8577412 73.7684706,18.8182118 C75.2028235,18.7923294 76.6658824,17.9396235 77.8767059,16.7706824 C78.1058824,18.0045647 78.9985882,18.9033882 80.8131765,18.8408 C82.7063529,18.7697412 84.5138824,17.5871529 85.7689412,16.2106824 L85.7689412,16.6059765 C85.7689412,17.8798588 86.4258824,18.8266824 87.8757647,18.8266824 C89.44,18.8266824 91.24,17.6549176 92.6583529,15.6280941 L92.7087059,15.6530353 C92.5764706,16.1339765 92.4230588,16.9443294 92.4,17.4902118 C92.3788235,19.0144471 93.2847059,19.8958588 94.544,20.1457412 L94.8498824,20.0233882 C94.3872941,18.9179765 95.0301176,16.1622118 95.2974118,15.2469176 C96.2357647,12.2299765 97.7270588,8.78056471 98.5872941,6.99185882 C98.1948235,6.6568 97.2738824,6.42621176 96.2955294,6.38338824 C93.0470588,6.26432941 89.7741176,7.60362353 87.3868235,11.8262118 C86.9788235,12.5622118 86.528,13.4097412 86.2014118,14.3029176 C85.8630588,14.7551529 85.5087059,15.1560941 85.3538824,15.3005647 C84.4922353,16.1339765 83.2668235,17.1970353 82.0244706,17.2144471 C81.312,17.2257412 80.9237647,16.7306824 80.9392941,15.8436235 C80.9548235,12.4685647 83.9350588,7.33632941 85.9548235,7.32456471 C86.5138824,7.32456471 86.7501176,7.56644706 86.7501176,8.04127059 C86.7501176,8.60127059 86.3689412,9.37774118 85.8188235,9.8728 L86.0588235,10.0859765 C87.4155294,9.56550588 88.6781176,8.62432941 88.6865882,7.61491765 C88.6865882,6.46621176 87.3614118,6.25303529 86.1872941,6.26432941 C84.6089412,6.28691765 82.6437647,7.05774118 81.0630588,8.78338824 C79.0884706,10.9419765 78.0649412,13.5320941 77.8611765,15.3833882 C76.96,16.4351529 75.9477647,17.1546824 75.2781176,17.1631529 C74.8927059,17.1772706 74.6211765,16.9725647 74.6211765,16.5716235 C74.6211765,16.2219765 74.8188235,15.5024471 75.1712941,14.5725647 C76.0461176,12.3946824 77.3082353,9.68221176 78.8635294,6.45774118 C78.8635294,6.45774118 76.4964706,6.85256471 76.1595294,6.95515294 C75.7981176,7.04315294 75.5237647,7.27656471 75.3675294,7.60362353 C74.3552941,9.75327059 73.1510588,12.2299765 72.3990588,14.0779765 C71.9397647,15.2436235 71.6498824,16.3443294 71.6498824,17.0069176 L71.6498824,17.0069176 Z M78.9049412,4.48691765 C79.6225882,4.47844706 80.3477647,3.80456471 80.504,3.01397647 C80.6790588,2.19515294 80.2061176,1.56127059 79.4795294,1.58103529 C78.7670588,1.58385882 78.0494118,2.2408 77.8767059,3.05962353 C77.7218824,3.85868235 78.1698824,4.49868235 78.9049412,4.48691765 L78.9049412,4.48691765 Z M28.7002353,7.36738824 C29.0912941,7.36738824 29.2277647,7.64032941 29.2277647,7.97868235 C29.2277647,9.59656471 27.2301176,11.6638588 24.6898824,13.1711529 C25.3251765,10.6713882 27.1284706,7.34762353 28.7002353,7.36738824 L28.7002353,7.36738824 Z M31.0517647,12.8925647 C29.4696471,15.1928 27.2592941,17.2685647 25.3581176,17.2685647 C24.5491765,17.2996235 24.1934118,16.8360941 24.2089412,15.9033882 C24.2089412,15.3462118 24.3402353,14.5612706 24.4494118,14.1631529 C26.248,13.2563294 28.0762353,12.2412706 29.7044706,10.5579765 C30.6145882,9.57962353 31.2202353,8.60456471 31.248,7.59232941 C31.264,6.64221176 30.6654118,6.15044706 29.4823529,6.13632941 C27.7590588,6.11327059 25.6950588,7.29068235 24.3529412,8.7208 C22.5915294,10.6431529 21.2334118,13.3640941 21.1967059,15.7815059 C21.1783529,17.4902118 21.9901176,18.8492706 24.1934118,18.7697412 C26.5510588,18.7015059 28.8715294,16.8845647 30.0672941,15.5706824 C29.9218824,16.1339765 29.8268235,16.6629176 29.8268235,17.0982118 C29.8268235,18.6191529 30.5811765,19.6968 32.0743529,20.1546824 L32.3712941,20.0153882 C32.2381176,19.6031529 32.2037647,19.1768 32.2381176,18.6930353 C32.3435294,17.2144471 32.9275294,15.5509176 33.7948235,13.3556235 C35.44,9.20691765 37.8338824,4.46150588 38.8889412,1.66621176 L36.3764706,2.14103529 C35.9858824,2.22385882 35.7364706,2.52503529 35.6075294,2.80644706 C34.3948235,5.38291765 33.1491765,8.12927059 31.5938824,11.7095059 C31.416,12.0902118 31.248,12.4939765 31.0517647,12.8925647 L31.0517647,12.8925647 Z M0,28.2897412 C0,28.6732706 26.6776471,29.0092706 52.9355294,29.0092706 C79.1962353,29.0092706 105.871059,28.6732706 105.871059,28.2897412 C105.871059,27.9024471 79.1962353,27.5848 52.9355294,27.5848 C26.6776471,27.5848 0,27.9024471 0,28.2897412 L0,28.2897412 Z"></path>
                    </g>
                </g>
            </g>
        </g>
    </g>
</svg>
